<?xml version="1.0" encoding="UTF-8"?>
<svg id="Layer_1" data-name="Layer 1" xmlns="http://www.w3.org/2000/svg" viewBox="0 0 81 54">
  <defs>
    <style>
      .cls-1 {
        fill: #2a8340;
      }
    </style>
  </defs>
  <path class="cls-1" d="M24.11,20.27v2h1.89v1.94h1.94v3.67h-3.72v-1.89h-1.89v-1.89h-2v9.61h2v-1.89h5.61v1.89h1.89v1.78h-1.89v1.89h-1.94v1.89h-3.67v-1.89h-2v9.5h-1.78v-9.5h-2.06v1.89h-3.67v-1.89h-1.89v-1.89h-1.94v-1.78h1.94v-1.89h5.55v1.89h2.06v-9.61h-2.06v1.89h-1.89v1.89h-3.67v-3.67h1.89v-1.94h1.89v-2h-5.72v-1.78h5.72v-2h-1.89v-1.94h-1.89v-3.67h3.67v1.89h1.89v1.89h2.06v-5.67h1.78v5.67h2v-1.89h1.89v-1.89h3.72v3.67h-1.94v1.94h-1.89v2h7.61v1.78h-7.61ZM18.39,18.5h-1.78v1.78h1.78v-1.78ZM20.33,16.61h-1.78v1.78h1.78v-1.78ZM20.33,20.39h-1.78v1.78h1.78v-1.78ZM22.22,18.5h-1.78v1.78h1.78v-1.78Z"/>
  <path class="cls-1" d="M44.47,18.4v2h1.89v1.94h1.94v3.67h-3.72v-1.89h-1.89v-1.89h-2v9.61h2v-1.89h5.61v1.89h1.89v1.78h-1.89v1.89h-1.94v1.89h-3.67v-1.89h-2v9.5h-1.78v-9.5h-2.06v1.89h-3.67v-1.89h-1.89v-1.89h-1.94v-1.78h1.94v-1.89h5.55v1.89h2.06v-9.61h-2.06v1.89h-1.89v1.89h-3.67v-3.67h1.89v-1.94h1.89v-2h-5.72v-1.78h5.72v-2h-1.89v-1.94h-1.89v-3.67h3.67v1.89h1.89v1.89h2.06v-5.67h1.78v5.67h2v-1.89h1.89v-1.89h3.72v3.67h-1.94v1.94h-1.89v2h7.61v1.78h-7.61ZM38.74,16.62h-1.78v1.78h1.78v-1.78ZM40.69,14.73h-1.78v1.78h1.78v-1.78ZM40.69,18.51h-1.78v1.78h1.78v-1.78ZM42.58,16.62h-1.78v1.78h1.78v-1.78Z"/>
  <path class="cls-1" d="M64.82,20.27v2h1.89v1.94h1.94v3.67h-3.72v-1.89h-1.89v-1.89h-2v9.61h2v-1.89h5.61v1.89h1.89v1.78h-1.89v1.89h-1.94v1.89h-3.67v-1.89h-2v9.5h-1.78v-9.5h-2.06v1.89h-3.67v-1.89h-1.89v-1.89h-1.94v-1.78h1.94v-1.89h5.55v1.89h2.06v-9.61h-2.06v1.89h-1.89v1.89h-3.67v-3.67h1.89v-1.94h1.89v-2h-5.72v-1.78h5.72v-2h-1.89v-1.94h-1.89v-3.67h3.67v1.89h1.89v1.89h2.06v-5.67h1.78v5.67h2v-1.89h1.89v-1.89h3.72v3.67h-1.94v1.94h-1.89v2h7.61v1.78h-7.61ZM59.1,18.5h-1.78v1.78h1.78v-1.78ZM61.05,16.61h-1.78v1.78h1.78v-1.78ZM61.05,20.39h-1.78v1.78h1.78v-1.78ZM62.94,18.5h-1.78v1.78h1.78v-1.78Z"/>
</svg>