<?xml version="1.0" encoding="UTF-8"?>
<svg id="Layer_1" data-name="Layer 1" xmlns="http://www.w3.org/2000/svg" viewBox="0 0 54 54">
  <defs>
    <style>
      .cls-1 {
        fill: #375e2d;
      }
    </style>
  </defs>
  <path class="cls-1" d="M42.68,31.34v2.33h-2.29v2.29h-2.32v2.33h-2.29v2.29h-2.32v2.33h-2.29v2.29H14.97v-2.29h-2.29v-2.33h-2.32v-2.29h-2.29v-2.33h-2.32v-2.29h-2.29v-4.62h2.29v2.29h2.32v2.33h2.29v2.29h2.32v2.33h2.29v2.29h6.94v-2.29h-2.32v-2.33h-2.29v-2.29h-2.32v-2.33h-2.29v-2.29h-2.32v-2.33h2.32v-2.29h2.29v2.29h2.32v2.33h2.29v2.29h2.32v-4.62h-2.32v-4.62h-2.29v-2.29h2.29v-2.33h2.32v-2.29h2.29v2.29h2.32v2.33h2.29v2.29h-2.29v4.62h-2.32v4.62h2.32v-2.29h2.29v-2.33h2.32v-2.29h2.29v2.29h2.32v2.33h-2.32v2.29h-2.29v2.33h-2.32v2.29h-2.29v2.33h-2.32v2.29h6.94v-2.29h2.29v-2.33h2.32v-2.29h2.29v-2.33h2.32v-2.29h2.29v-2.33h2.32v4.62h-2.32ZM14.97,26.72h-2.29v2.33h2.29v-2.33ZM17.3,29.05h-2.32v2.29h2.32v-2.29ZM19.59,31.34h-2.29v2.33h2.29v-2.33ZM21.91,33.66h-2.32v2.29h2.32v-2.29ZM24.21,19.81h-2.29v4.62h2.29v-4.62ZM26.53,33.66h-2.32v2.29h2.32v-2.29ZM28.82,31.34h-2.29v2.33h2.29v-2.33ZM31.15,29.05h-2.32v2.29h2.32v-2.29ZM33.44,26.72h-2.29v2.33h2.29v-2.33Z"/>
</svg>