<?xml version="1.0" encoding="UTF-8"?>
<svg id="Layer_1" data-name="Layer 1" xmlns="http://www.w3.org/2000/svg" viewBox="-3 -3 60 60">
  <defs>
    <style>
      .cls-1 {
        fill: #2a8340;
      }
    </style>
  </defs>
  <path class="cls-1" d="M47.01,30.22c0,.86-.1,1.42-1.01,1.42h-.31v.25c0,.1-.05.25-.05.35-.25.05-.45.05-.71.05-.35,0-.71,0-1.01-.05v1.62h.41c.46,0,.51.41.51.86v.51c0,.71-.15,1.06-1.01,1.06,0,.25.05.46.05.71,0,.61-.66.71-1.12.71h-.71c-.86,0-1.42-.1-1.42-1.02,0-.1.05-.25.05-.41-.5,0-1.06.05-1.57.05-.45,0-.51-.35-.51-.71v-.46h-.71c-.51,0-.71-.15-.71-.51,0-.1.05-.2.05-.36h-.86c-.26-.1-.31-.3-.31-.51,0-.1.05-.25.05-.46h-1.32v1.47h.41c.51,0,.56.25.56.81.96,0,1.07.05,1.07.51v.71c.61,0,1.32,0,1.32.76,0,.51-.1,1.01-.1,1.47.26,0,.51-.05.76-.05.2,0,.41.15.51.35v2.59c0,.25-.31.31-.61.31-.26,0-.56-.05-.66-.05,0,.81-.25,1.12-1.06,1.12h-.31c-.96,0-1.57,0-1.57-1.27h-1.17c0,.56.05,1.17.05,1.73,0,.51-.41.56-.76.56h-.45l.05.36c0,.61-.76.66-1.22.66h-.76c-.82,0-1.37-.1-1.37-1.02h-.86c-.36,0-.45-.2-.45-.51,0-.1.05-.25.05-.41v-.25h-.66l-.25-.25v-6.09c-.25.05-.51.05-.81.05-.26,0-.46,0-.71-.05v6.09c0,.25-.2.3-.45.3-.15,0-.36-.05-.46-.05l.05.71c0,.45-.26.56-.56.56-.2,0-.46-.05-.66-.05v.56c0,.56-.91.61-1.52.61h-.25c-.91,0-1.17,0-1.17-.71v-.46l-.51.05c-.15,0-.61,0-.61-.3v-2.18c-.05.25-.31.31-.56.31-.15,0-.31-.05-.56-.05h-.41v.56c0,.66-.91.71-1.63.71h-.25c-1.01,0-1.32,0-1.32-.76,0-.15.05-.35.05-.56h-.61c-.5,0-.61-.61-.61-1.02v-.3c0-.91,0-1.62.81-1.62.1,0,.31,0,.46.05,0-.56-.05-1.11-.05-1.67,0-.46.31-.56.66-.56.15,0,.41.05.45.05h.15v-.76c0-.2.36-.25.61-.25.15,0,.31.05.36.05v-.86c0-.41.2-.51.51-.51.15,0,.41.05.56.05v-1.11h-1.37c0,.86-.1,1.01-.46,1.01-.2,0-.45-.05-.76-.05v.36c0,.3-.05.66-.71.71h-.41c0,.81-.25.96-.66.96-.31,0-.66-.1-1.07-.1.05.25.05.51.05.71,0,.66-.66.71-1.17.71-.61,0-1.22-.15-1.83-.15l-.25-.25v-.71c-.26.05-.51.05-.76.05-.61,0-.76-.46-.76-1.02v-.81c0-.66.1-1.12.91-1.12h.31c-.05-.2-.05-.41-.05-.61s0-.36.05-.61c-.51,0-1.01.05-1.52.05-.41,0-.51-.36-.51-.71,0-.2.05-.35.05-.61h-.56c-.51,0-.51-.76-.51-1.17v-.81c0-.61.1-1.01.86-1.01h.2c0-.41-.05-.76-.05-1.17,0-.71.51-.86,1.17-.86h6.14v-1.37h-5.99c-.25,0-.3-.25-.3-.56v-.51l-.46.05c-.45,0-.5-.25-.5-.56v-.46c-.56.05-.61.05-.61.05-.61,0-.66-.71-.66-1.22,0-.66.15-1.32.15-1.93,0-.2.36-.2.66-.2h.46v-.86c0-.25.5-.3,1.01-.3.41,0,.81.05.96.05,0-.2-.05-.36-.05-.56,0-.25.05-.56.1-.81h-.66c-.31,0-.41-.2-.41-.46,0-.61.15-.71.45-.71.2,0,.45.05.76.05v-.91l.51-.15v-1.11c.1-.25.25-.25.56-.25v-.66c0-.3,1.01-.3,1.22-.3.31,0,.66.05.81.36v.61c.46-.05.91-.05,1.42-.05.45,0,.56.41.56.81,0,.25-.05.46-.05.61.31,0,.36,0,.51.05.05,0,.1.05.15.05l.05.97.81-.05c.41,0,.51.3.51.61,0,.15-.05.31-.05.46h2.64c-.05-.25-.05-.51-.05-.76,0-.2,0-.46.05-.66-.56,0-1.07.05-1.58.05s-.56-.41-.56-.76v-.41c-1.11,0-1.32-.05-1.32-.56,0-.2.05-.51.05-.91-.96,0-1.17-.2-1.17-.61,0-.25.1-.56.1-1.02-.2,0-.41.05-.61.05-.56,0-.66-.66-.66-1.12v-.66c0-.71.1-1.27.96-1.27-.05-.3-.05-.56-.05-.86,0-.66.51-.81,1.07-.81h.61c1.01,0,1.52.05,1.52,1.02v.25c.36,0,.81,0,.81.51h.82c0-.61-.15-1.27-.15-1.88s.41-.66.91-.66v-.71l.3-.25h2.74c.26,0,.31.3.31.61v.35h1.01s-.05.41-.05,1.17l.51-.05c.15,0,.5.05.5.3v6.34h1.98v-6.34c.1-.2.25-.25.61-.25v-.66c0-.46.31-.51.61-.51h.46v-1.01c0-.3.91-.36,1.57-.36h.66c.76,0,.96.3.96.86,0,.15-.05.3-.05.51.61,0,1.27.05,1.27.81,0,.46-.15.91-.15,1.37h1.47l-.05-.71c0-.2,0-.81.26-.81.76,0,1.52-.15,2.28-.15.71,0,.81.41.81.96v.41c.2,0,.45-.05.66-.05.56,0,.61.86.61,1.27v.91c0,.76-.1,1.27-.96,1.27h-.3c0,.45.05.96.05,1.42s-.41.56-.76.56c-.2,0-.41-.05-.56-.05,0,.76-.05.91-.41.91-.15,0-.36-.05-.66-.05v.61c0,.41-.31.81-.86.81l-.05,1.42h1.17v-1.17c0-.15.1-.15.25-.15.2,0,.46.05.66.05.15,0,.25-.05.25-.2,0-.76.2-.86.61-.86h.56v-.56c0-.45.41-.51.81-.51.46,0,.86.1,1.27.1,0-.25-.05-.51-.05-.76,0-.61.56-.76,1.12-.76h.35c1.17,0,1.73,0,1.73,1.12,0,.15-.05.25-.05.46h.66c.5,0,.56.76.56,1.17v.35c0,1.22,0,1.63-.96,1.63-.2,0-.51,0-.82-.05v.36h.2c.2,0,.36.05.46.25l.05.71c.45,0,.91-.15,1.37-.15.51,0,.61.3.61.66v.25h1.12l.2.3v2.89c0,.3-.3.36-.66.36-.25,0-.51-.05-.66-.05v.41c0,.41-.1.66-.76.71h-.35c0,.2.05.41.05.61s-.05.61-.31.61h-5.89c0,.2.05.41.05.61s-.05.41-.05.61h5.79c.25.05.3.25.3.45v.25c1.22,0,1.42.05,1.42.51,0,.25-.05.56-.05,1.12.21,0,.46-.05.66-.05.61,0,.66.71.66,1.17v.71ZM32.8,25.45c0-.25,0-.51.05-.76h-.76c-.45,0-.5-.3-.5-.61v-.56c-1.32,0-1.52-.05-1.52-.61,0-.25.05-.61.05-1.07h-.76c-.25-.15-.36-.41-.36-.71,0-.15.05-.3.05-.56l-1.12.05c-.5,0-.55-.3-.55-.71v-.51h-2.34v1.02c-.15.35-.45.41-.76.41-.2,0-.41-.05-.61-.05v.96c0,.31-.36.36-.76.36-.3,0-.56-.05-.71-.05v.96c0,.35-.3.46-.61.46-.15,0-.3-.05-.41-.05h-.15v1.42c0,.2-.35.25-.71.25h-.46v.31c0,.41-.05.86-.15,1.32h.71c.46,0,.56.2.56.51,0,.15-.05.3-.05.46,1.12,0,1.27,0,1.27.51v.86c1.22,0,1.37,0,1.37.56v.91c.5,0,.96-.05,1.47-.05.61,0,.61.61.61,1.17h1.82v-.66c0-.2.15-.36.36-.46h1.01v-1.06c0-.25.41-.3.76-.3h.61v-1.02c0-.45.36-.56.71-.56.15,0,.31.05.46.05h.2v-1.17c0-.3.41-.36.76-.36.2,0,.41.05.5.05-.05-.25-.05-.46-.05-.71ZM22.05,26.32l-.56-.61.61-.51.56.51-.61.61ZM23.37,25.05l-.56-.56.61-.56.56.56-.61.56ZM23.62,27.64l-.56-.61.61-.56.56.56-.61.61ZM24.84,23.63l-.56-.61.61-.56.55.56-.61.61ZM24.94,28.85l-.56-.56.61-.56.56.51-.61.61ZM25.04,26.32l-.56-.61.61-.51.56.51-.61.61ZM26.36,22.26l-.61-.56.66-.56.55.56-.61.56ZM26.41,25l-.56-.61.61-.56.56.56-.61.61ZM26.46,30.27l-.56-.56.61-.56.56.51-.61.61ZM26.51,27.64l-.56-.61.61-.56.56.56-.61.61ZM27.83,23.63l-.56-.61.61-.56.56.56-.61.61ZM27.88,28.9l-.56-.61.61-.56.56.56-.61.61ZM27.99,26.27l-.56-.61.61-.56.56.56-.61.61ZM29.25,27.53l-.56-.56.61-.56.56.51-.61.61ZM29.31,25l-.56-.61.61-.56.56.56-.61.61ZM30.57,26.27l-.56-.61.61-.56.56.56-.61.61Z"/>
</svg>