<?xml version="1.0" encoding="UTF-8"?>
<svg id="Layer_1" data-name="Layer 1" xmlns="http://www.w3.org/2000/svg" xmlns:xlink="http://www.w3.org/1999/xlink" viewBox="0 0 72 126">
  <defs>
    <style>
      .cls-1 {
        fill: url(#linear-gradient);
      }

      .cls-2 {
        fill: #405d32;
      }

      .cls-3 {
        fill: #ea983e;
      }
    </style>
    <linearGradient id="linear-gradient" x1="36" y1="35.82" x2="36" y2="60.48" gradientUnits="userSpaceOnUse">
      <stop offset="0" stop-color="#e06837"/>
      <stop offset=".49" stop-color="#da3a32"/>
    </linearGradient>
  </defs>
  <path class="cls-2" d="M41.28,77.07v.4h-.4v.38h-.39v.4h-.4v.4h-.4v.4h-.4v.38h-.39v.79h.39v.4h.4v.38h-1.97v-.38h.4v-.4h.4v-.79h-.4v-.38h-.4v-.4h-.39v-.4h-.4v-.4h-.4v-.38h-.4v-.4h-.39v-.4h.39v.4h.4v.4h.4v.38h.4v.4h.39v.4h.4v.4h.4v-.79h-.4v-.4h-.4v-.38h-.39v-.4h-.4v-.4h-.4v-.4h-.4v-.39h.4v.39h.4v.4h.4v.4h.39v.4h.4v.38h.4v-.78h-.4v-.4h-.4v-.4h-.39v-.39h-.4v-.4h-.4v-.4h.4v.4h.4v.4h.39v.39h.4v.4h.4v-.78h-.4v-.4h-.4v-.4h-.39v-.4h-.4v-.39h.4v.39h.39v.4h.4v.4h.4v-.79h-.4v-.39h-.4v-.4h.4v.4h.4v-.79h-.4v-.4h.4v-.78h.4v.78h.39v.4h-.39v.79h.39v-.4h.4v.4h-.4v.39h-.39v.79h.39v-.4h.4v-.4h.4v-.39h.4v.39h-.4v.4h-.4v.4h-.4v.4h-.39v.78h.39v-.4h.4v-.39h.4v-.4h.4v-.4h.39v.4h-.39v.4h-.4v.39h-.4v.4h-.4v.4h-.39v.78h.39v-.38h.4v-.4h.4v-.4h.4v-.4h.39v-.39h.4v.39h-.4v.4h-.39v.4h-.4v.4h-.4v.38h-.4v.4h-.39v.79h.39v-.4h.4v-.4h.4v-.4h.4v-.38h.39v-.4h.4v-.4h.4v.4h-.4Z"/>
  <path class="cls-2" d="M35.6,86.07v.4h-.4v.38h-.39v.4h-.4v.4h-.4v.4h-.4v.38h-.39v.79h.39v.4h.4v.38h-1.97v-.38h.4v-.4h.4v-.79h-.4v-.38h-.4v-.4h-.39v-.4h-.4v-.4h-.4v-.38h-.4v-.4h-.39v-.4h.39v.4h.4v.4h.4v.38h.4v.4h.39v.4h.4v.4h.4v-.79h-.4v-.4h-.4v-.38h-.39v-.4h-.4v-.4h-.4v-.4h-.4v-.39h.4v.39h.4v.4h.4v.4h.39v.4h.4v.38h.4v-.78h-.4v-.4h-.4v-.4h-.39v-.39h-.4v-.4h-.4v-.4h.4v.4h.4v.4h.39v.39h.4v.4h.4v-.78h-.4v-.4h-.4v-.4h-.39v-.4h-.4v-.39h.4v.39h.39v.4h.4v.4h.4v-.79h-.4v-.39h-.4v-.4h.4v.4h.4v-.79h-.4v-.4h.4v-.78h.4v.78h.39v.4h-.39v.79h.39v-.4h.4v.4h-.4v.39h-.39v.79h.39v-.4h.4v-.4h.4v-.39h.4v.39h-.4v.4h-.4v.4h-.4v.4h-.39v.78h.39v-.4h.4v-.39h.4v-.4h.4v-.4h.39v.4h-.39v.4h-.4v.39h-.4v.4h-.4v.4h-.39v.78h.39v-.38h.4v-.4h.4v-.4h.4v-.4h.39v-.39h.4v.39h-.4v.4h-.39v.4h-.4v.4h-.4v.38h-.4v.4h-.39v.79h.39v-.4h.4v-.4h.4v-.4h.4v-.38h.39v-.4h.4v-.4h.4v.4h-.4Z"/>
  <path class="cls-2" d="M35.6,68.07v.4h-.4v.38h-.39v.4h-.4v.4h-.4v.4h-.4v.38h-.39v.79h.39v.4h.4v.38h-1.97v-.38h.4v-.4h.4v-.79h-.4v-.38h-.4v-.4h-.39v-.4h-.4v-.4h-.4v-.38h-.4v-.4h-.39v-.4h.39v.4h.4v.4h.4v.38h.4v.4h.39v.4h.4v.4h.4v-.79h-.4v-.4h-.4v-.38h-.39v-.4h-.4v-.4h-.4v-.4h-.4v-.39h.4v.39h.4v.4h.4v.4h.39v.4h.4v.38h.4v-.78h-.4v-.4h-.4v-.4h-.39v-.39h-.4v-.4h-.4v-.4h.4v.4h.4v.4h.39v.39h.4v.4h.4v-.78h-.4v-.4h-.4v-.4h-.39v-.4h-.4v-.39h.4v.39h.39v.4h.4v.4h.4v-.79h-.4v-.39h-.4v-.4h.4v.4h.4v-.79h-.4v-.4h.4v-.78h.4v.78h.39v.4h-.39v.79h.39v-.4h.4v.4h-.4v.39h-.39v.79h.39v-.4h.4v-.4h.4v-.39h.4v.39h-.4v.4h-.4v.4h-.4v.4h-.39v.78h.39v-.4h.4v-.39h.4v-.4h.4v-.4h.39v.4h-.39v.4h-.4v.39h-.4v.4h-.4v.4h-.39v.78h.39v-.38h.4v-.4h.4v-.4h.4v-.4h.39v-.39h.4v.39h-.4v.4h-.39v.4h-.4v.4h-.4v.38h-.4v.4h-.39v.79h.39v-.4h.4v-.4h.4v-.4h.4v-.38h.39v-.4h.4v-.4h.4v.4h-.4Z"/>
  <path class="cls-2" d="M35.6,77.07v.4h-.4v.38h-.39v.4h-.4v.4h-.4v.4h-.4v.38h-.39v.79h.39v.4h.4v.38h-1.97v-.38h.4v-.4h.4v-.79h-.4v-.38h-.4v-.4h-.39v-.4h-.4v-.4h-.4v-.38h-.4v-.4h-.39v-.4h.39v.4h.4v.4h.4v.38h.4v.4h.39v.4h.4v.4h.4v-.79h-.4v-.4h-.4v-.38h-.39v-.4h-.4v-.4h-.4v-.4h-.4v-.39h.4v.39h.4v.4h.4v.4h.39v.4h.4v.38h.4v-.78h-.4v-.4h-.4v-.4h-.39v-.39h-.4v-.4h-.4v-.4h.4v.4h.4v.4h.39v.39h.4v.4h.4v-.78h-.4v-.4h-.4v-.4h-.39v-.4h-.4v-.39h.4v.39h.39v.4h.4v.4h.4v-.79h-.4v-.39h-.4v-.4h.4v.4h.4v-.79h-.4v-.4h.4v-.78h.4v.78h.39v.4h-.39v.79h.39v-.4h.4v.4h-.4v.39h-.39v.79h.39v-.4h.4v-.4h.4v-.39h.4v.39h-.4v.4h-.4v.4h-.4v.4h-.39v.78h.39v-.4h.4v-.39h.4v-.4h.4v-.4h.39v.4h-.39v.4h-.4v.39h-.4v.4h-.4v.4h-.39v.78h.39v-.38h.4v-.4h.4v-.4h.4v-.4h.39v-.39h.4v.39h-.4v.4h-.39v.4h-.4v.4h-.4v.38h-.4v.4h-.39v.79h.39v-.4h.4v-.4h.4v-.4h.4v-.38h.39v-.4h.4v-.4h.4v.4h-.4Z"/>
  <path class="cls-2" d="M41.5,86.07v.4h-.4v.38h-.39v.4h-.4v.4h-.4v.4h-.4v.38h-.39v.79h.39v.4h.4v.38h-1.97v-.38h.4v-.4h.4v-.79h-.4v-.38h-.4v-.4h-.39v-.4h-.4v-.4h-.4v-.38h-.4v-.4h-.39v-.4h.39v.4h.4v.4h.4v.38h.4v.4h.39v.4h.4v.4h.4v-.79h-.4v-.4h-.4v-.38h-.39v-.4h-.4v-.4h-.4v-.4h-.4v-.39h.4v.39h.4v.4h.4v.4h.39v.4h.4v.38h.4v-.78h-.4v-.4h-.4v-.4h-.39v-.39h-.4v-.4h-.4v-.4h.4v.4h.4v.4h.39v.39h.4v.4h.4v-.78h-.4v-.4h-.4v-.4h-.39v-.4h-.4v-.39h.4v.39h.39v.4h.4v.4h.4v-.79h-.4v-.39h-.4v-.4h.4v.4h.4v-.79h-.4v-.4h.4v-.78h.4v.78h.39v.4h-.39v.79h.39v-.4h.4v.4h-.4v.39h-.39v.79h.39v-.4h.4v-.4h.4v-.39h.4v.39h-.4v.4h-.4v.4h-.4v.4h-.39v.78h.39v-.4h.4v-.39h.4v-.4h.4v-.4h.39v.4h-.39v.4h-.4v.39h-.4v.4h-.4v.4h-.39v.78h.39v-.38h.4v-.4h.4v-.4h.4v-.4h.39v-.39h.4v.39h-.4v.4h-.39v.4h-.4v.4h-.4v.38h-.4v.4h-.39v.79h.39v-.4h.4v-.4h.4v-.4h.4v-.38h.39v-.4h.4v-.4h.4v.4h-.4Z"/>
  <path class="cls-2" d="M41.5,68.07v.4h-.4v.38h-.39v.4h-.4v.4h-.4v.4h-.4v.38h-.39v.79h.39v.4h.4v.38h-1.97v-.38h.4v-.4h.4v-.79h-.4v-.38h-.4v-.4h-.39v-.4h-.4v-.4h-.4v-.38h-.4v-.4h-.39v-.4h.39v.4h.4v.4h.4v.38h.4v.4h.39v.4h.4v.4h.4v-.79h-.4v-.4h-.4v-.38h-.39v-.4h-.4v-.4h-.4v-.4h-.4v-.39h.4v.39h.4v.4h.4v.4h.39v.4h.4v.38h.4v-.78h-.4v-.4h-.4v-.4h-.39v-.39h-.4v-.4h-.4v-.4h.4v.4h.4v.4h.39v.39h.4v.4h.4v-.78h-.4v-.4h-.4v-.4h-.39v-.4h-.4v-.39h.4v.39h.39v.4h.4v.4h.4v-.79h-.4v-.39h-.4v-.4h.4v.4h.4v-.79h-.4v-.4h.4v-.78h.4v.78h.39v.4h-.39v.79h.39v-.4h.4v.4h-.4v.39h-.39v.79h.39v-.4h.4v-.4h.4v-.39h.4v.39h-.4v.4h-.4v.4h-.4v.4h-.39v.78h.39v-.4h.4v-.39h.4v-.4h.4v-.4h.39v.4h-.39v.4h-.4v.39h-.4v.4h-.4v.4h-.39v.78h.39v-.38h.4v-.4h.4v-.4h.4v-.4h.39v-.39h.4v.39h-.4v.4h-.39v.4h-.4v.4h-.4v.38h-.4v.4h-.39v.79h.39v-.4h.4v-.4h.4v-.4h.4v-.38h.39v-.4h.4v-.4h.4v.4h-.4Z"/>
  <path class="cls-2" d="M24.08,89.98h.56s0,.55,0,.55h-.56s0-.55,0-.55ZM23.52,89.99h.57s0,.55,0,.55h-.57s0-.55,0-.55ZM24.65,90.53h.57s.01.56.01.56h-.57s-.01-.56-.01-.56ZM24.09,90.54h.56s.01.56.01.56h-.56s-.01-.56-.01-.56ZM25.23,91.09h.56s0,.55,0,.55h-.56s0-.55,0-.55ZM24.66,91.1h.57s0,.55,0,.55h-.57s0-.55,0-.55ZM22.41,91.14h.57s0,.55,0,.55h-.57s0-.55,0-.55ZM25.8,91.64h.57s.01.56.01.56h-.57s-.01-.56-.01-.56ZM25.24,91.65h.56s.01.56.01.56h-.56s-.01-.56-.01-.56ZM22.99,91.68h.56s.01.56.01.56h-.56s-.01-.56-.01-.56ZM21.86,91.7h.56s.01.56.01.56h-.56s-.01-.56-.01-.56ZM26.37,92.19h.56s0,.55,0,.55h-.56s0-.55,0-.55ZM25.81,92.2h.57s0,.55,0,.55h-.57s0-.55,0-.55ZM23.56,92.24h.57s0,.55,0,.55h-.57s0-.55,0-.55ZM22.43,92.26h.57s0,.55,0,.55h-.57s0-.55,0-.55ZM26.38,92.75h.56s.01.56.01.56h-.56s-.01-.56-.01-.56ZM25.82,92.76h.57s.01.56.01.56h-.57s-.01-.56-.01-.56ZM24.13,92.79h.56s.01.56.01.56h-.56s-.01-.56-.01-.56ZM23.01,92.81h.56s.01.56.01.56h-.56s-.01-.56-.01-.56ZM20.76,92.85h.56s.01.56.01.56h-.56s-.01-.56-.01-.56ZM26.39,93.32h.56s0,.55,0,.55h-.56s0-.55,0-.55ZM25.83,93.33h.57s0,.55,0,.55h-.57s0-.55,0-.55ZM24.7,93.35h.57s0,.55,0,.55h-.57s0-.55,0-.55ZM23.58,93.37h.57s0,.55,0,.55h-.57s0-.55,0-.55ZM21.89,93.4h.56s0,.55,0,.55h-.56s0-.55,0-.55ZM21.33,93.41h.57s0,.55,0,.55h-.57s0-.55,0-.55ZM20.77,93.42h.56s0,.55,0,.55h-.56s0-.55,0-.55ZM20.2,93.43h.57s0,.55,0,.55h-.57s0-.55,0-.55ZM26.4,93.87h.56s.01.56.01.56h-.56s-.01-.56-.01-.56ZM25.84,93.88h.57s.01.56.01.56h-.57s-.01-.56-.01-.56ZM25.28,93.89h.56s.01.56.01.56h-.56s-.01-.56-.01-.56ZM24.71,93.9h.57s.01.56.01.56h-.57s-.01-.56-.01-.56ZM24.15,93.91h.56s.01.56.01.56h-.56s-.01-.56-.01-.56ZM23.59,93.92h.57s.01.56.01.56h-.57s-.01-.56-.01-.56ZM23.03,93.93h.56s.01.56.01.56h-.56s-.01-.56-.01-.56ZM22.46,93.94h.57s.01.56.01.56h-.57s-.01-.56-.01-.56ZM21.9,93.95h.56s.01.56.01.56h-.56s-.01-.56-.01-.56ZM20.21,93.98h.57s.01.56.01.56h-.57s-.01-.56-.01-.56ZM19.65,93.99h.56s.01.56.01.56h-.56s-.01-.56-.01-.56ZM26.41,94.44h.56s0,.55,0,.55h-.56s0-.55,0-.55ZM25.85,94.45h.57s0,.55,0,.55h-.57s0-.55,0-.55ZM24.72,94.47h.57s0,.55,0,.55h-.57s0-.55,0-.55ZM23.6,94.49h.57s0,.55,0,.55h-.57s0-.55,0-.55ZM21.91,94.52h.56s0,.55,0,.55h-.56s0-.55,0-.55ZM21.35,94.53h.57s0,.55,0,.55h-.57s0-.55,0-.55ZM20.79,94.54h.56s0,.55,0,.55h-.56s0-.55,0-.55ZM20.22,94.55h.57s0,.55,0,.55h-.57s0-.55,0-.55ZM26.42,95h.56s.01.56.01.56h-.56s-.01-.56-.01-.56ZM25.86,95.01h.57s.01.56.01.56h-.57s-.01-.56-.01-.56ZM24.17,95.04h.56s.01.56.01.56h-.56s-.01-.56-.01-.56ZM23.05,95.06h.56s.01.56.01.56h-.56s-.01-.56-.01-.56ZM20.8,95.1h.56s.01.56.01.56h-.56s-.01-.56-.01-.56ZM26.43,95.57h.56s0,.55,0,.55h-.56s0-.55,0-.55ZM25.87,95.58h.57s0,.55,0,.55h-.57s0-.55,0-.55ZM23.62,95.62h.57s0,.55,0,.55h-.57s0-.55,0-.55ZM22.49,95.64h.57s0,.55,0,.55h-.57s0-.55,0-.55ZM25.88,96.13h.57s.01.56.01.56h-.57s-.01-.56-.01-.56ZM25.32,96.14h.56s.01.56.01.56h-.56s-.01-.56-.01-.56ZM23.07,96.18h.56s.01.56.01.56h-.56s-.01-.56-.01-.56ZM21.94,96.2h.56s.01.56.01.56h-.56s-.01-.56-.01-.56ZM25.33,96.71h.56s0,.55,0,.55h-.56s0-.55,0-.55ZM24.76,96.72h.57s0,.55,0,.55h-.57s0-.55,0-.55ZM22.51,96.76h.57s0,.55,0,.55h-.57s0-.55,0-.55ZM24.77,97.28h.57s.01.56.01.56h-.57s-.01-.56-.01-.56ZM24.21,97.29h.56s.01.56.01.56h-.56s-.01-.56-.01-.56ZM24.22,97.86h.56s0,.55,0,.55h-.56s0-.55,0-.55ZM23.66,97.87h.57s0,.55,0,.55h-.57s0-.55,0-.55ZM23.67,98.42h.57s.01.56.01.56h-.57s-.01-.56-.01-.56ZM23.11,98.43h.56s.01.56.01.56h-.56s-.01-.56-.01-.56Z"/>
  <path class="cls-2" d="M23.92,80.98h.56s0,.55,0,.55h-.56s0-.55,0-.55ZM23.36,80.99h.57s0,.55,0,.55h-.57s0-.55,0-.55ZM24.49,81.53h.57s.01.56.01.56h-.57s-.01-.56-.01-.56ZM23.93,81.54h.56s.01.56.01.56h-.56s-.01-.56-.01-.56ZM25.07,82.09h.56s0,.55,0,.55h-.56s0-.55,0-.55ZM24.5,82.1h.57s0,.55,0,.55h-.57s0-.55,0-.55ZM22.25,82.14h.57s0,.55,0,.55h-.57s0-.55,0-.55ZM25.64,82.64h.57s.01.56.01.56h-.57s-.01-.56-.01-.56ZM25.08,82.65h.56s.01.56.01.56h-.56s-.01-.56-.01-.56ZM22.83,82.69h.56s.01.56.01.56h-.56s-.01-.56-.01-.56ZM21.7,82.71h.56s.01.56.01.56h-.56s-.01-.56-.01-.56ZM26.21,83.19h.56s0,.55,0,.55h-.56s0-.55,0-.55ZM25.65,83.2h.57s0,.55,0,.55h-.57s0-.55,0-.55ZM23.4,83.24h.57s0,.55,0,.55h-.57s0-.55,0-.55ZM22.27,83.26h.57s0,.55,0,.55h-.57s0-.55,0-.55ZM26.22,83.75h.56s.01.56.01.56h-.56s-.01-.56-.01-.56ZM25.66,83.76h.57s.01.56.01.56h-.57s-.01-.56-.01-.56ZM23.97,83.79h.56s.01.56.01.56h-.56s-.01-.56-.01-.56ZM22.85,83.81h.56s.01.56.01.56h-.56s-.01-.56-.01-.56ZM20.6,83.85h.56s.01.56.01.56h-.56s-.01-.56-.01-.56ZM26.23,84.32h.56s0,.55,0,.55h-.56s0-.55,0-.55ZM25.67,84.33h.57s0,.55,0,.55h-.57s0-.55,0-.55ZM24.54,84.35h.57s0,.55,0,.55h-.57s0-.55,0-.55ZM23.42,84.37h.57s0,.55,0,.55h-.57s0-.55,0-.55ZM21.73,84.4h.56s0,.55,0,.55h-.56s0-.55,0-.55ZM21.17,84.41h.57s0,.55,0,.55h-.57s0-.55,0-.55ZM20.61,84.42h.56s0,.55,0,.55h-.56s0-.55,0-.55ZM20.04,84.43h.57s0,.55,0,.55h-.57s0-.55,0-.55ZM26.24,84.88h.56s.01.56.01.56h-.56s-.01-.56-.01-.56ZM25.68,84.89h.57s.01.56.01.56h-.57s-.01-.56-.01-.56ZM25.12,84.9h.56s.01.56.01.56h-.56s-.01-.56-.01-.56ZM24.55,84.91h.57s.01.56.01.56h-.57s-.01-.56-.01-.56ZM23.99,84.92h.56s.01.56.01.56h-.56s-.01-.56-.01-.56ZM23.43,84.93h.57s.01.56.01.56h-.57s-.01-.56-.01-.56ZM22.87,84.94h.56s.01.56.01.56h-.56s-.01-.56-.01-.56ZM22.3,84.95h.57s.01.56.01.56h-.57s-.01-.56-.01-.56ZM21.74,84.96h.56s.01.56.01.56h-.56s-.01-.56-.01-.56ZM20.05,84.99h.57s.01.56.01.56h-.57s-.01-.56-.01-.56ZM19.49,85h.56s.01.56.01.56h-.56s-.01-.56-.01-.56ZM26.25,85.44h.56s0,.55,0,.55h-.56s0-.55,0-.55ZM25.69,85.45h.57s0,.55,0,.55h-.57s0-.55,0-.55ZM24.56,85.47h.57s0,.55,0,.55h-.57s0-.55,0-.55ZM23.44,85.49h.57s0,.55,0,.55h-.57s0-.55,0-.55ZM21.75,85.52h.56s0,.55,0,.55h-.56s0-.55,0-.55ZM21.19,85.53h.57s0,.55,0,.55h-.57s0-.55,0-.55ZM20.63,85.54h.56s0,.55,0,.55h-.56s0-.55,0-.55ZM20.06,85.55h.57s0,.55,0,.55h-.57s0-.55,0-.55ZM26.26,86h.56s.01.56.01.56h-.56s-.01-.56-.01-.56ZM25.7,86.01h.57s.01.56.01.56h-.57s-.01-.56-.01-.56ZM24.01,86.04h.56s.01.56.01.56h-.56s-.01-.56-.01-.56ZM22.89,86.06h.56s.01.56.01.56h-.56s-.01-.56-.01-.56ZM20.64,86.1h.56s.01.56.01.56h-.56s-.01-.56-.01-.56ZM26.27,86.57h.56s0,.55,0,.55h-.56s0-.55,0-.55ZM25.71,86.58h.57s0,.55,0,.55h-.57s0-.55,0-.55ZM23.46,86.62h.57s0,.55,0,.55h-.57s0-.55,0-.55ZM22.33,86.64h.57s0,.55,0,.55h-.57s0-.55,0-.55ZM25.72,87.14h.57s.01.56.01.56h-.57s-.01-.56-.01-.56ZM25.16,87.15h.56s.01.56.01.56h-.56s-.01-.56-.01-.56ZM22.91,87.19h.56s.01.56.01.56h-.56s-.01-.56-.01-.56ZM21.78,87.21h.56s.01.56.01.56h-.56s-.01-.56-.01-.56ZM25.17,87.71h.56s0,.55,0,.55h-.56s0-.55,0-.55ZM24.6,87.72h.57s0,.55,0,.55h-.57s0-.55,0-.55ZM22.35,87.76h.57s0,.55,0,.55h-.57s0-.55,0-.55ZM24.61,88.28h.57s.01.56.01.56h-.57s-.01-.56-.01-.56ZM24.05,88.29h.56s.01.56.01.56h-.56s-.01-.56-.01-.56ZM24.06,88.86h.56s0,.55,0,.55h-.56s0-.55,0-.55ZM23.5,88.87h.57s0,.55,0,.55h-.57s0-.55,0-.55ZM23.51,89.43h.57s.01.56.01.56h-.57s-.01-.56-.01-.56ZM22.95,89.44h.56s.01.56.01.56h-.56s-.01-.56-.01-.56Z"/>
  <path class="cls-2" d="M16.7,85.61h.56s0,.55,0,.55h-.56s0-.55,0-.55ZM16.13,85.62h.57s0,.55,0,.55h-.57s0-.55,0-.55ZM17.26,86.16h.57s.01.56.01.56h-.57s-.01-.56-.01-.56ZM16.71,86.17h.56s.01.56.01.56h-.56s-.01-.56-.01-.56ZM17.84,86.72h.56s0,.55,0,.55h-.56s0-.55,0-.55ZM17.27,86.73h.57s0,.55,0,.55h-.57s0-.55,0-.55ZM15.02,86.77h.57s0,.55,0,.55h-.57s0-.55,0-.55ZM18.41,87.26h.57s.01.56.01.56h-.57s-.01-.56-.01-.56ZM17.85,87.27h.56s.01.56.01.56h-.56s-.01-.56-.01-.56ZM15.6,87.31h.56s.01.56.01.56h-.56s-.01-.56-.01-.56ZM14.48,87.33h.56s.01.56.01.56h-.56s-.01-.56-.01-.56ZM18.99,87.82h.56s0,.55,0,.55h-.56s0-.55,0-.55ZM18.42,87.83h.57s0,.55,0,.55h-.57s0-.55,0-.55ZM16.17,87.87h.57s0,.55,0,.55h-.57s0-.55,0-.55ZM15.04,87.89h.57s0,.55,0,.55h-.57s0-.55,0-.55ZM19,88.38h.56s.01.56.01.56h-.56s-.01-.56-.01-.56ZM18.43,88.39h.57s.01.56.01.56h-.57s-.01-.56-.01-.56ZM16.75,88.42h.56s.01.56.01.56h-.56s-.01-.56-.01-.56ZM15.62,88.44h.56s.01.56.01.56h-.56s-.01-.56-.01-.56ZM13.37,88.48h.56s.01.56.01.56h-.56s-.01-.56-.01-.56ZM19.01,88.95h.56s0,.55,0,.55h-.56s0-.55,0-.55ZM18.44,88.96h.57s0,.55,0,.55h-.57s0-.55,0-.55ZM17.31,88.98h.57s0,.55,0,.55h-.57s0-.55,0-.55ZM16.19,89h.57s0,.55,0,.55h-.57s0-.55,0-.55ZM14.51,89.03h.56s0,.55,0,.55h-.56s0-.55,0-.55ZM13.94,89.04h.57s0,.55,0,.55h-.57s0-.55,0-.55ZM13.38,89.05h.56s0,.55,0,.55h-.56s0-.55,0-.55ZM12.81,89.06h.57s0,.55,0,.55h-.57s0-.55,0-.55ZM19.02,89.5h.56s.01.56.01.56h-.56s-.01-.56-.01-.56ZM18.45,89.51h.57s.01.56.01.56h-.57s-.01-.56-.01-.56ZM17.89,89.52h.56s.01.56.01.56h-.56s-.01-.56-.01-.56ZM17.32,89.53h.57s.01.56.01.56h-.57s-.01-.56-.01-.56ZM16.77,89.54h.56s.01.56.01.56h-.56s-.01-.56-.01-.56ZM16.2,89.55h.57s.01.56.01.56h-.57s-.01-.56-.01-.56ZM15.64,89.56h.56s.01.56.01.56h-.56s-.01-.56-.01-.56ZM15.07,89.57h.57s.01.56.01.56h-.57s-.01-.56-.01-.56ZM14.52,89.58h.56s.01.56.01.56h-.56s-.01-.56-.01-.56ZM12.82,89.61h.57s.01.56.01.56h-.57s-.01-.56-.01-.56ZM12.27,89.62h.56s.01.56.01.56h-.56s-.01-.56-.01-.56ZM19.03,90.07h.56s0,.55,0,.55h-.56s0-.55,0-.55ZM18.46,90.08h.57s0,.55,0,.55h-.57s0-.55,0-.55ZM17.33,90.1h.57s0,.55,0,.55h-.57s0-.55,0-.55ZM16.21,90.12h.57s0,.55,0,.55h-.57s0-.55,0-.55ZM14.53,90.15h.56s0,.55,0,.55h-.56s0-.55,0-.55ZM13.96,90.16h.57s0,.55,0,.55h-.57s0-.55,0-.55ZM13.4,90.17h.56s0,.55,0,.55h-.56s0-.55,0-.55ZM12.83,90.18h.57s0,.55,0,.55h-.57s0-.55,0-.55ZM19.04,90.63h.56s.01.56.01.56h-.56s-.01-.56-.01-.56ZM18.47,90.64h.57s.01.56.01.56h-.57s-.01-.56-.01-.56ZM16.79,90.67h.56s.01.56.01.56h-.56s-.01-.56-.01-.56ZM15.66,90.69h.56s.01.56.01.56h-.56s-.01-.56-.01-.56ZM13.41,90.73h.56s.01.56.01.56h-.56s-.01-.56-.01-.56ZM19.05,91.2h.56s0,.55,0,.55h-.56s0-.55,0-.55ZM18.48,91.21h.57s0,.55,0,.55h-.57s0-.55,0-.55ZM16.23,91.25h.57s0,.55,0,.55h-.57s0-.55,0-.55ZM15.1,91.27h.57s0,.55,0,.55h-.57s0-.55,0-.55ZM18.49,91.76h.57s.01.56.01.56h-.57s-.01-.56-.01-.56ZM17.93,91.77h.56s.01.56.01.56h-.56s-.01-.56-.01-.56ZM15.68,91.81h.56s.01.56.01.56h-.56s-.01-.56-.01-.56ZM14.56,91.83h.56s.01.56.01.56h-.56s-.01-.56-.01-.56ZM17.94,92.34h.56s0,.55,0,.55h-.56s0-.55,0-.55ZM17.37,92.35h.57s0,.55,0,.55h-.57s0-.55,0-.55ZM15.12,92.39h.57s0,.55,0,.55h-.57s0-.55,0-.55ZM17.38,92.91h.57s.01.56.01.56h-.57s-.01-.56-.01-.56ZM16.83,92.92h.56s.01.56.01.56h-.56s-.01-.56-.01-.56ZM16.84,93.49h.56s0,.55,0,.55h-.56s0-.55,0-.55ZM16.27,93.5h.57s0,.55,0,.55h-.57s0-.55,0-.55ZM16.28,94.05h.57s.01.56.01.56h-.57s-.01-.56-.01-.56ZM15.72,94.06h.56s.01.56.01.56h-.56s-.01-.56-.01-.56Z"/>
  <path class="cls-2" d="M41.28,104.07v.4h-.4v.38h-.39v.4h-.4v.4h-.4v.4h-.4v.38h-.39v.79h.39v.4h.4v.38h-1.97v-.38h.4v-.4h.4v-.79h-.4v-.38h-.4v-.4h-.39v-.4h-.4v-.4h-.4v-.38h-.4v-.4h-.39v-.4h.39v.4h.4v.4h.4v.38h.4v.4h.39v.4h.4v.4h.4v-.79h-.4v-.4h-.4v-.38h-.39v-.4h-.4v-.4h-.4v-.4h-.4v-.39h.4v.39h.4v.4h.4v.4h.39v.4h.4v.38h.4v-.78h-.4v-.4h-.4v-.4h-.39v-.39h-.4v-.4h-.4v-.4h.4v.4h.4v.4h.39v.39h.4v.4h.4v-.78h-.4v-.4h-.4v-.4h-.39v-.4h-.4v-.39h.4v.39h.39v.4h.4v.4h.4v-.79h-.4v-.39h-.4v-.4h.4v.4h.4v-.79h-.4v-.4h.4v-.78h.4v.78h.39v.4h-.39v.79h.39v-.4h.4v.4h-.4v.39h-.39v.79h.39v-.4h.4v-.4h.4v-.39h.4v.39h-.4v.4h-.4v.4h-.4v.4h-.39v.78h.39v-.4h.4v-.39h.4v-.4h.4v-.4h.39v.4h-.39v.4h-.4v.39h-.4v.4h-.4v.4h-.39v.78h.39v-.38h.4v-.4h.4v-.4h.4v-.4h.39v-.39h.4v.39h-.4v.4h-.39v.4h-.4v.4h-.4v.38h-.4v.4h-.39v.79h.39v-.4h.4v-.4h.4v-.4h.4v-.38h.39v-.4h.4v-.4h.4v.4h-.4Z"/>
  <path class="cls-2" d="M35.6,113.07v.4h-.4v.38h-.39v.4h-.4v.4h-.4v.4h-.4v.38h-.39v.79h.39v.4h.4v.38h-1.97v-.38h.4v-.4h.4v-.79h-.4v-.38h-.4v-.4h-.39v-.4h-.4v-.4h-.4v-.38h-.4v-.4h-.39v-.4h.39v.4h.4v.4h.4v.38h.4v.4h.39v.4h.4v.4h.4v-.79h-.4v-.4h-.4v-.38h-.39v-.4h-.4v-.4h-.4v-.4h-.4v-.39h.4v.39h.4v.4h.4v.4h.39v.4h.4v.38h.4v-.78h-.4v-.4h-.4v-.4h-.39v-.39h-.4v-.4h-.4v-.4h.4v.4h.4v.4h.39v.39h.4v.4h.4v-.78h-.4v-.4h-.4v-.4h-.39v-.4h-.4v-.39h.4v.39h.39v.4h.4v.4h.4v-.79h-.4v-.39h-.4v-.4h.4v.4h.4v-.79h-.4v-.4h.4v-.78h.4v.78h.39v.4h-.39v.79h.39v-.4h.4v.4h-.4v.39h-.39v.79h.39v-.4h.4v-.4h.4v-.39h.4v.39h-.4v.4h-.4v.4h-.4v.4h-.39v.78h.39v-.4h.4v-.39h.4v-.4h.4v-.4h.39v.4h-.39v.4h-.4v.39h-.4v.4h-.4v.4h-.39v.78h.39v-.38h.4v-.4h.4v-.4h.4v-.4h.39v-.39h.4v.39h-.4v.4h-.39v.4h-.4v.4h-.4v.38h-.4v.4h-.39v.79h.39v-.4h.4v-.4h.4v-.4h.4v-.38h.39v-.4h.4v-.4h.4v.4h-.4Z"/>
  <path class="cls-2" d="M35.6,95.07v.4h-.4v.38h-.39v.4h-.4v.4h-.4v.4h-.4v.38h-.39v.79h.39v.4h.4v.38h-1.97v-.38h.4v-.4h.4v-.79h-.4v-.38h-.4v-.4h-.39v-.4h-.4v-.4h-.4v-.38h-.4v-.4h-.39v-.4h.39v.4h.4v.4h.4v.38h.4v.4h.39v.4h.4v.4h.4v-.79h-.4v-.4h-.4v-.38h-.39v-.4h-.4v-.4h-.4v-.4h-.4v-.39h.4v.39h.4v.4h.4v.4h.39v.4h.4v.38h.4v-.78h-.4v-.4h-.4v-.4h-.39v-.39h-.4v-.4h-.4v-.4h.4v.4h.4v.4h.39v.39h.4v.4h.4v-.78h-.4v-.4h-.4v-.4h-.39v-.4h-.4v-.39h.4v.39h.39v.4h.4v.4h.4v-.79h-.4v-.39h-.4v-.4h.4v.4h.4v-.79h-.4v-.4h.4v-.78h.4v.78h.39v.4h-.39v.79h.39v-.4h.4v.4h-.4v.39h-.39v.79h.39v-.4h.4v-.4h.4v-.39h.4v.39h-.4v.4h-.4v.4h-.4v.4h-.39v.78h.39v-.4h.4v-.39h.4v-.4h.4v-.4h.39v.4h-.39v.4h-.4v.39h-.4v.4h-.4v.4h-.39v.78h.39v-.38h.4v-.4h.4v-.4h.4v-.4h.39v-.39h.4v.39h-.4v.4h-.39v.4h-.4v.4h-.4v.38h-.4v.4h-.39v.79h.39v-.4h.4v-.4h.4v-.4h.4v-.38h.39v-.4h.4v-.4h.4v.4h-.4Z"/>
  <path class="cls-2" d="M35.6,104.07v.4h-.4v.38h-.39v.4h-.4v.4h-.4v.4h-.4v.38h-.39v.79h.39v.4h.4v.38h-1.97v-.38h.4v-.4h.4v-.79h-.4v-.38h-.4v-.4h-.39v-.4h-.4v-.4h-.4v-.38h-.4v-.4h-.39v-.4h.39v.4h.4v.4h.4v.38h.4v.4h.39v.4h.4v.4h.4v-.79h-.4v-.4h-.4v-.38h-.39v-.4h-.4v-.4h-.4v-.4h-.4v-.39h.4v.39h.4v.4h.4v.4h.39v.4h.4v.38h.4v-.78h-.4v-.4h-.4v-.4h-.39v-.39h-.4v-.4h-.4v-.4h.4v.4h.4v.4h.39v.39h.4v.4h.4v-.78h-.4v-.4h-.4v-.4h-.39v-.4h-.4v-.39h.4v.39h.39v.4h.4v.4h.4v-.79h-.4v-.39h-.4v-.4h.4v.4h.4v-.79h-.4v-.4h.4v-.78h.4v.78h.39v.4h-.39v.79h.39v-.4h.4v.4h-.4v.39h-.39v.79h.39v-.4h.4v-.4h.4v-.39h.4v.39h-.4v.4h-.4v.4h-.4v.4h-.39v.78h.39v-.4h.4v-.39h.4v-.4h.4v-.4h.39v.4h-.39v.4h-.4v.39h-.4v.4h-.4v.4h-.39v.78h.39v-.38h.4v-.4h.4v-.4h.4v-.4h.39v-.39h.4v.39h-.4v.4h-.39v.4h-.4v.4h-.4v.38h-.4v.4h-.39v.79h.39v-.4h.4v-.4h.4v-.4h.4v-.38h.39v-.4h.4v-.4h.4v.4h-.4Z"/>
  <path class="cls-2" d="M41.5,113.07v.4h-.4v.38h-.39v.4h-.4v.4h-.4v.4h-.4v.38h-.39v.79h.39v.4h.4v.38h-1.97v-.38h.4v-.4h.4v-.79h-.4v-.38h-.4v-.4h-.39v-.4h-.4v-.4h-.4v-.38h-.4v-.4h-.39v-.4h.39v.4h.4v.4h.4v.38h.4v.4h.39v.4h.4v.4h.4v-.79h-.4v-.4h-.4v-.38h-.39v-.4h-.4v-.4h-.4v-.4h-.4v-.39h.4v.39h.4v.4h.4v.4h.39v.4h.4v.38h.4v-.78h-.4v-.4h-.4v-.4h-.39v-.39h-.4v-.4h-.4v-.4h.4v.4h.4v.4h.39v.39h.4v.4h.4v-.78h-.4v-.4h-.4v-.4h-.39v-.4h-.4v-.39h.4v.39h.39v.4h.4v.4h.4v-.79h-.4v-.39h-.4v-.4h.4v.4h.4v-.79h-.4v-.4h.4v-.78h.4v.78h.39v.4h-.39v.79h.39v-.4h.4v.4h-.4v.39h-.39v.79h.39v-.4h.4v-.4h.4v-.39h.4v.39h-.4v.4h-.4v.4h-.4v.4h-.39v.78h.39v-.4h.4v-.39h.4v-.4h.4v-.4h.39v.4h-.39v.4h-.4v.39h-.4v.4h-.4v.4h-.39v.78h.39v-.38h.4v-.4h.4v-.4h.4v-.4h.39v-.39h.4v.39h-.4v.4h-.39v.4h-.4v.4h-.4v.38h-.4v.4h-.39v.79h.39v-.4h.4v-.4h.4v-.4h.4v-.38h.39v-.4h.4v-.4h.4v.4h-.4Z"/>
  <path class="cls-2" d="M41.5,95.07v.4h-.4v.38h-.39v.4h-.4v.4h-.4v.4h-.4v.38h-.39v.79h.39v.4h.4v.38h-1.97v-.38h.4v-.4h.4v-.79h-.4v-.38h-.4v-.4h-.39v-.4h-.4v-.4h-.4v-.38h-.4v-.4h-.39v-.4h.39v.4h.4v.4h.4v.38h.4v.4h.39v.4h.4v.4h.4v-.79h-.4v-.4h-.4v-.38h-.39v-.4h-.4v-.4h-.4v-.4h-.4v-.39h.4v.39h.4v.4h.4v.4h.39v.4h.4v.38h.4v-.78h-.4v-.4h-.4v-.4h-.39v-.39h-.4v-.4h-.4v-.4h.4v.4h.4v.4h.39v.39h.4v.4h.4v-.78h-.4v-.4h-.4v-.4h-.39v-.4h-.4v-.39h.4v.39h.39v.4h.4v.4h.4v-.79h-.4v-.39h-.4v-.4h.4v.4h.4v-.79h-.4v-.4h.4v-.78h.4v.78h.39v.4h-.39v.79h.39v-.4h.4v.4h-.4v.39h-.39v.79h.39v-.4h.4v-.4h.4v-.39h.4v.39h-.4v.4h-.4v.4h-.4v.4h-.39v.78h.39v-.4h.4v-.39h.4v-.4h.4v-.4h.39v.4h-.39v.4h-.4v.39h-.4v.4h-.4v.4h-.39v.78h.39v-.38h.4v-.4h.4v-.4h.4v-.4h.39v-.39h.4v.39h-.4v.4h-.39v.4h-.4v.4h-.4v.38h-.4v.4h-.39v.79h.39v-.4h.4v-.4h.4v-.4h.4v-.38h.39v-.4h.4v-.4h.4v.4h-.4Z"/>
  <path class="cls-2" d="M47.92,80.99h-.56s0-.55,0-.55h.56s0,.55,0,.55ZM48.48,80.98h-.57s0-.55,0-.55h.57s0,.55,0,.55ZM47.35,80.44h-.57s-.01-.56-.01-.56h.57s.01.56.01.56ZM47.91,80.43h-.56s-.01-.56-.01-.56h.56s.01.56.01.56ZM46.77,79.89h-.56s0-.55,0-.55h.56s0,.55,0,.55ZM47.34,79.88h-.57s0-.55,0-.55h.57s0,.55,0,.55ZM49.59,79.84h-.57s0-.55,0-.55h.57s0,.55,0,.55ZM46.2,79.34h-.57s-.01-.56-.01-.56h.57s.01.56.01.56ZM46.76,79.33h-.56s-.01-.56-.01-.56h.56s.01.56.01.56ZM49.01,79.29h-.56s-.01-.56-.01-.56h.56s.01.56.01.56ZM50.14,79.27h-.56s-.01-.56-.01-.56h.56s.01.56.01.56ZM45.63,78.78h-.56s0-.55,0-.55h.56s0,.55,0,.55ZM46.19,78.77h-.57s0-.55,0-.55h.57s0,.55,0,.55ZM48.44,78.73h-.57s0-.55,0-.55h.57s0,.55,0,.55ZM49.57,78.71h-.57s0-.55,0-.55h.57s0,.55,0,.55ZM45.62,78.22h-.56s-.01-.56-.01-.56h.56s.01.56.01.56ZM46.18,78.21h-.57s-.01-.56-.01-.56h.57s.01.56.01.56ZM47.87,78.18h-.56s-.01-.56-.01-.56h.56s.01.56.01.56ZM48.99,78.16h-.56s-.01-.56-.01-.56h.56s.01.56.01.56ZM51.24,78.12h-.56s-.01-.56-.01-.56h.56s.01.56.01.56ZM45.61,77.66h-.56s0-.55,0-.55h.56s0,.55,0,.55ZM46.17,77.65h-.57s0-.55,0-.55h.57s0,.55,0,.55ZM47.3,77.63h-.57s0-.55,0-.55h.57s0,.55,0,.55ZM48.42,77.61h-.57s0-.55,0-.55h.57s0,.55,0,.55ZM50.11,77.58h-.56s0-.55,0-.55h.56s0,.55,0,.55ZM50.67,77.57h-.57s0-.55,0-.55h.57s0,.55,0,.55ZM51.23,77.56h-.56s0-.55,0-.55h.56s0,.55,0,.55ZM51.8,77.55h-.57s0-.55,0-.55h.57s0,.55,0,.55ZM45.6,77.1h-.56s-.01-.56-.01-.56h.56s.01.56.01.56ZM46.16,77.09h-.57s-.01-.56-.01-.56h.57s.01.56.01.56ZM46.72,77.08h-.56s-.01-.56-.01-.56h.56s.01.56.01.56ZM47.29,77.07h-.57s-.01-.56-.01-.56h.57s.01.56.01.56ZM47.85,77.06h-.56s-.01-.56-.01-.56h.56s.01.56.01.56ZM48.41,77.05h-.57s-.01-.56-.01-.56h.57s.01.56.01.56ZM48.97,77.04h-.56s-.01-.56-.01-.56h.56s.01.56.01.56ZM49.54,77.03h-.57s-.01-.56-.01-.56h.57s.01.56.01.56ZM50.1,77.02h-.56s-.01-.56-.01-.56h.56s.01.56.01.56ZM51.79,76.99h-.57s-.01-.56-.01-.56h.57s.01.56.01.56ZM52.35,76.98h-.56s-.01-.56-.01-.56h.56s.01.56.01.56ZM45.59,76.53h-.56s0-.55,0-.55h.56s0,.55,0,.55ZM46.15,76.52h-.57s0-.55,0-.55h.57s0,.55,0,.55ZM47.28,76.5h-.57s0-.55,0-.55h.57s0,.55,0,.55ZM48.4,76.48h-.57s0-.55,0-.55h.57s0,.55,0,.55ZM50.09,76.45h-.56s0-.55,0-.55h.56s0,.55,0,.55ZM50.65,76.44h-.57s0-.55,0-.55h.57s0,.55,0,.55ZM51.21,76.43h-.56s0-.55,0-.55h.56s0,.55,0,.55ZM51.78,76.42h-.57s0-.55,0-.55h.57s0,.55,0,.55ZM45.58,75.97h-.56s-.01-.56-.01-.56h.56s.01.56.01.56ZM46.14,75.96h-.57s-.01-.56-.01-.56h.57s.01.56.01.56ZM47.83,75.93h-.56s-.01-.56-.01-.56h.56s.01.56.01.56ZM48.95,75.91h-.56s-.01-.56-.01-.56h.56s.01.56.01.56ZM51.2,75.87h-.56s-.01-.56-.01-.56h.56s.01.56.01.56ZM45.57,75.41h-.56s0-.55,0-.55h.56s0,.55,0,.55ZM46.13,75.4h-.57s0-.55,0-.55h.57s0,.55,0,.55ZM48.38,75.36h-.57s0-.55,0-.55h.57s0,.55,0,.55ZM49.51,75.34h-.57s0-.55,0-.55h.57s0,.55,0,.55ZM46.12,74.84h-.57s-.01-.56-.01-.56h.57s.01.56.01.56ZM46.68,74.83h-.56s-.01-.56-.01-.56h.56s.01.56.01.56ZM48.93,74.79h-.56s-.01-.56-.01-.56h.56s.01.56.01.56ZM50.06,74.77h-.56s-.01-.56-.01-.56h.56s.01.56.01.56ZM46.67,74.26h-.56s0-.55,0-.55h.56s0,.55,0,.55ZM47.24,74.25h-.57s0-.55,0-.55h.57s0,.55,0,.55ZM49.49,74.21h-.57s0-.55,0-.55h.57s0,.55,0,.55ZM47.23,73.69h-.57s-.01-.56-.01-.56h.57s.01.56.01.56ZM47.79,73.68h-.56s-.01-.56-.01-.56h.56s.01.56.01.56ZM47.78,73.12h-.56s0-.55,0-.55h.56s0,.55,0,.55ZM48.34,73.11h-.57s0-.55,0-.55h.57s0,.55,0,.55ZM48.33,72.55h-.57s-.01-.56-.01-.56h.57s.01.56.01.56ZM48.89,72.54h-.56s-.01-.56-.01-.56h.56s.01.56.01.56Z"/>
  <path class="cls-2" d="M48.08,89.99h-.56s0-.55,0-.55h.56s0,.55,0,.55ZM48.64,89.98h-.57s0-.55,0-.55h.57s0,.55,0,.55ZM47.51,89.44h-.57s-.01-.56-.01-.56h.57s.01.56.01.56ZM48.07,89.43h-.56s-.01-.56-.01-.56h.56s.01.56.01.56ZM46.93,88.89h-.56s0-.55,0-.55h.56s0,.55,0,.55ZM47.5,88.88h-.57s0-.55,0-.55h.57s0,.55,0,.55ZM49.75,88.84h-.57s0-.55,0-.55h.57s0,.55,0,.55ZM46.36,88.34h-.57s-.01-.56-.01-.56h.57s.01.56.01.56ZM46.92,88.33h-.56s-.01-.56-.01-.56h.56s.01.56.01.56ZM49.17,88.29h-.56s-.01-.56-.01-.56h.56s.01.56.01.56ZM50.3,88.27h-.56s-.01-.56-.01-.56h.56s.01.56.01.56ZM45.79,87.78h-.56s0-.55,0-.55h.56s0,.55,0,.55ZM46.35,87.77h-.57s0-.55,0-.55h.57s0,.55,0,.55ZM48.6,87.73h-.57s0-.55,0-.55h.57s0,.55,0,.55ZM49.73,87.71h-.57s0-.55,0-.55h.57s0,.55,0,.55ZM45.78,87.22h-.56s-.01-.56-.01-.56h.56s.01.56.01.56ZM46.34,87.21h-.57s-.01-.56-.01-.56h.57s.01.56.01.56ZM48.03,87.18h-.56s-.01-.56-.01-.56h.56s.01.56.01.56ZM49.15,87.16h-.56s-.01-.56-.01-.56h.56s.01.56.01.56ZM51.4,87.12h-.56s-.01-.56-.01-.56h.56s.01.56.01.56ZM45.77,86.66h-.56s0-.55,0-.55h.56s0,.55,0,.55ZM46.33,86.65h-.57s0-.55,0-.55h.57s0,.55,0,.55ZM47.46,86.63h-.57s0-.55,0-.55h.57s0,.55,0,.55ZM48.58,86.61h-.57s0-.55,0-.55h.57s0,.55,0,.55ZM50.27,86.58h-.56s0-.55,0-.55h.56s0,.55,0,.55ZM50.83,86.57h-.57s0-.55,0-.55h.57s0,.55,0,.55ZM51.39,86.56h-.56s0-.55,0-.55h.56s0,.55,0,.55ZM51.96,86.55h-.57s0-.55,0-.55h.57s0,.55,0,.55ZM45.76,86.1h-.56s-.01-.56-.01-.56h.56s.01.56.01.56ZM46.32,86.09h-.57s-.01-.56-.01-.56h.57s.01.56.01.56ZM46.88,86.08h-.56s-.01-.56-.01-.56h.56s.01.56.01.56ZM47.45,86.07h-.57s-.01-.56-.01-.56h.57s.01.56.01.56ZM48.01,86.06h-.56s-.01-.56-.01-.56h.56s.01.56.01.56ZM48.57,86.05h-.57s-.01-.56-.01-.56h.57s.01.56.01.56ZM49.13,86.04h-.56s-.01-.56-.01-.56h.56s.01.56.01.56ZM49.7,86.03h-.57s-.01-.56-.01-.56h.57s.01.56.01.56ZM50.26,86.02h-.56s-.01-.56-.01-.56h.56s.01.56.01.56ZM51.95,85.99h-.57s-.01-.56-.01-.56h.57s.01.56.01.56ZM52.51,85.98h-.56s-.01-.56-.01-.56h.56s.01.56.01.56ZM45.75,85.53h-.56s0-.55,0-.55h.56s0,.55,0,.55ZM46.31,85.52h-.57s0-.55,0-.55h.57s0,.55,0,.55ZM47.44,85.5h-.57s0-.55,0-.55h.57s0,.55,0,.55ZM48.56,85.48h-.57s0-.55,0-.55h.57s0,.55,0,.55ZM50.25,85.45h-.56s0-.55,0-.55h.56s0,.55,0,.55ZM50.81,85.44h-.57s0-.55,0-.55h.57s0,.55,0,.55ZM51.37,85.43h-.56s0-.55,0-.55h.56s0,.55,0,.55ZM51.94,85.42h-.57s0-.55,0-.55h.57s0,.55,0,.55ZM45.74,84.97h-.56s-.01-.56-.01-.56h.56s.01.56.01.56ZM46.3,84.96h-.57s-.01-.56-.01-.56h.57s.01.56.01.56ZM47.99,84.93h-.56s-.01-.56-.01-.56h.56s.01.56.01.56ZM49.11,84.91h-.56s-.01-.56-.01-.56h.56s.01.56.01.56ZM51.36,84.87h-.56s-.01-.56-.01-.56h.56s.01.56.01.56ZM45.73,84.41h-.56s0-.55,0-.55h.56s0,.55,0,.55ZM46.29,84.4h-.57s0-.55,0-.55h.57s0,.55,0,.55ZM48.54,84.36h-.57s0-.55,0-.55h.57s0,.55,0,.55ZM49.67,84.34h-.57s0-.55,0-.55h.57s0,.55,0,.55ZM46.28,83.84h-.57s-.01-.56-.01-.56h.57s.01.56.01.56ZM46.84,83.83h-.56s-.01-.56-.01-.56h.56s.01.56.01.56ZM49.09,83.79h-.56s-.01-.56-.01-.56h.56s.01.56.01.56ZM50.22,83.77h-.56s-.01-.56-.01-.56h.56s.01.56.01.56ZM46.83,83.26h-.56s0-.55,0-.55h.56s0,.55,0,.55ZM47.4,83.25h-.57s0-.55,0-.55h.57s0,.55,0,.55ZM49.65,83.21h-.57s0-.55,0-.55h.57s0,.55,0,.55ZM47.39,82.69h-.57s-.01-.56-.01-.56h.57s.01.56.01.56ZM47.95,82.68h-.56s-.01-.56-.01-.56h.56s.01.56.01.56ZM47.94,82.12h-.56s0-.55,0-.55h.56s0,.55,0,.55ZM48.5,82.11h-.57s0-.55,0-.55h.57s0,.55,0,.55ZM48.49,81.55h-.57s-.01-.56-.01-.56h.57s.01.56.01.56ZM49.05,81.54h-.56s-.01-.56-.01-.56h.56s.01.56.01.56Z"/>
  <path class="cls-2" d="M55.3,85.36h-.56s0-.55,0-.55h.56s0,.55,0,.55ZM55.87,85.35h-.57s0-.55,0-.55h.57s0,.55,0,.55ZM54.74,84.81h-.57s-.01-.56-.01-.56h.57s.01.56.01.56ZM55.29,84.8h-.56s-.01-.56-.01-.56h.56s.01.56.01.56ZM54.16,84.26h-.56s0-.55,0-.55h.56s0,.55,0,.55ZM54.73,84.25h-.57s0-.55,0-.55h.57s0,.55,0,.55ZM56.98,84.21h-.57s0-.55,0-.55h.57s0,.55,0,.55ZM53.59,83.71h-.57s-.01-.56-.01-.56h.57s.01.56.01.56ZM54.15,83.7h-.56s-.01-.56-.01-.56h.56s.01.56.01.56ZM56.4,83.66h-.56s-.01-.56-.01-.56h.56s.01.56.01.56ZM57.52,83.64h-.56s-.01-.56-.01-.56h.56s.01.56.01.56ZM53.01,83.15h-.56s0-.55,0-.55h.56s0,.55,0,.55ZM53.58,83.14h-.57s0-.55,0-.55h.57s0,.55,0,.55ZM55.83,83.1h-.57s0-.55,0-.55h.57s0,.55,0,.55ZM56.96,83.08h-.57s0-.55,0-.55h.57s0,.55,0,.55ZM53,82.59h-.56s-.01-.56-.01-.56h.56s.01.56.01.56ZM53.57,82.58h-.57s-.01-.56-.01-.56h.57s.01.56.01.56ZM55.25,82.55h-.56s-.01-.56-.01-.56h.56s.01.56.01.56ZM56.38,82.53h-.56s-.01-.56-.01-.56h.56s.01.56.01.56ZM58.63,82.49h-.56s-.01-.56-.01-.56h.56s.01.56.01.56ZM52.99,82.03h-.56s0-.55,0-.55h.56s0,.55,0,.55ZM53.56,82.02h-.57s0-.55,0-.55h.57s0,.55,0,.55ZM54.69,82h-.57s0-.55,0-.55h.57s0,.55,0,.55ZM55.81,81.98h-.57s0-.55,0-.55h.57s0,.55,0,.55ZM57.49,81.95h-.56s0-.55,0-.55h.56s0,.55,0,.55ZM58.06,81.94h-.57s0-.55,0-.55h.57s0,.55,0,.55ZM58.62,81.93h-.56s0-.55,0-.55h.56s0,.55,0,.55ZM59.19,81.92h-.57s0-.55,0-.55h.57s0,.55,0,.55ZM52.98,81.47h-.56s-.01-.56-.01-.56h.56s.01.56.01.56ZM53.55,81.46h-.57s-.01-.56-.01-.56h.57s.01.56.01.56ZM54.11,81.45h-.56s-.01-.56-.01-.56h.56s.01.56.01.56ZM54.68,81.44h-.57s-.01-.56-.01-.56h.57s.01.56.01.56ZM55.23,81.43h-.56s-.01-.56-.01-.56h.56s.01.56.01.56ZM55.8,81.42h-.57s-.01-.56-.01-.56h.57s.01.56.01.56ZM56.36,81.41h-.56s-.01-.56-.01-.56h.56s.01.56.01.56ZM56.93,81.4h-.57s-.01-.56-.01-.56h.57s.01.56.01.56ZM57.48,81.39h-.56s-.01-.56-.01-.56h.56s.01.56.01.56ZM59.18,81.36h-.57s-.01-.56-.01-.56h.57s.01.56.01.56ZM59.73,81.35h-.56s-.01-.56-.01-.56h.56s.01.56.01.56ZM52.97,80.9h-.56s0-.55,0-.55h.56s0,.55,0,.55ZM53.54,80.89h-.57s0-.55,0-.55h.57s0,.55,0,.55ZM54.67,80.87h-.57s0-.55,0-.55h.57s0,.55,0,.55ZM55.79,80.85h-.57s0-.55,0-.55h.57s0,.55,0,.55ZM57.47,80.82h-.56s0-.55,0-.55h.56s0,.55,0,.55ZM58.04,80.81h-.57s0-.55,0-.55h.57s0,.55,0,.55ZM58.6,80.8h-.56s0-.55,0-.55h.56s0,.55,0,.55ZM59.17,80.79h-.57s0-.55,0-.55h.57s0,.55,0,.55ZM52.96,80.34h-.56s-.01-.56-.01-.56h.56s.01.56.01.56ZM53.53,80.33h-.57s-.01-.56-.01-.56h.57s.01.56.01.56ZM55.21,80.3h-.56s-.01-.56-.01-.56h.56s.01.56.01.56ZM56.34,80.28h-.56s-.01-.56-.01-.56h.56s.01.56.01.56ZM58.59,80.24h-.56s-.01-.56-.01-.56h.56s.01.56.01.56ZM52.95,79.78h-.56s0-.55,0-.55h.56s0,.55,0,.55ZM53.52,79.77h-.57s0-.55,0-.55h.57s0,.55,0,.55ZM55.77,79.73h-.57s0-.55,0-.55h.57s0,.55,0,.55ZM56.9,79.71h-.57s0-.55,0-.55h.57s0,.55,0,.55ZM53.51,79.21h-.57s-.01-.56-.01-.56h.57s.01.56.01.56ZM54.07,79.2h-.56s-.01-.56-.01-.56h.56s.01.56.01.56ZM56.32,79.16h-.56s-.01-.56-.01-.56h.56s.01.56.01.56ZM57.44,79.14h-.56s-.01-.56-.01-.56h.56s.01.56.01.56ZM54.06,78.63h-.56s0-.55,0-.55h.56s0,.55,0,.55ZM54.63,78.62h-.57s0-.55,0-.55h.57s0,.55,0,.55ZM56.88,78.58h-.57s0-.55,0-.55h.57s0,.55,0,.55ZM54.62,78.06h-.57s-.01-.56-.01-.56h.57s.01.56.01.56ZM55.17,78.05h-.56s-.01-.56-.01-.56h.56s.01.56.01.56ZM55.16,77.49h-.56s0-.55,0-.55h.56s0,.55,0,.55ZM55.73,77.48h-.57s0-.55,0-.55h.57s0,.55,0,.55ZM55.72,76.92h-.57s-.01-.56-.01-.56h.57s.01.56.01.56ZM56.28,76.91h-.56s-.01-.56-.01-.56h.56s.01.56.01.56Z"/>
  <polygon class="cls-1" points="54 9.35 54 18.35 45 18.35 45 27.35 27 27.35 27 18.35 18 18.35 18 9.35 9 9.35 9 18.35 9 27.35 9 54.35 18 54.35 18 63.35 54 63.35 54 54.35 63 54.35 63 27.35 63 18.35 63 9.35 54 9.35"/>
  <path class="cls-3" d="M27.53,59.11v-.53h.53v.53h-.53ZM27.53,59.65v-.53h.53v.53h-.53ZM28.06,58.59v-.53h.53v.53h-.53ZM28.06,59.11v-.53h.53v.53h-.53ZM28.59,58.06v-.53h.53v.53h-.53ZM28.59,58.59v-.53h.53v.53h-.53ZM28.59,60.71v-.53h.53v.53h-.53ZM29.12,57.53v-.53h.53v.53h-.53ZM29.12,58.06v-.53h.53v.53h-.53ZM29.12,60.17v-.53h.53v.53h-.53ZM29.12,61.23v-.53h.53v.53h-.53ZM29.65,57v-.53h.53v.53h-.53ZM29.65,57.53v-.53h.53v.53h-.53ZM29.65,59.65v-.53h.53v.53h-.53ZM29.65,60.71v-.53h.53v.53h-.53ZM30.18,57v-.53h.53v.53h-.53ZM30.18,57.53v-.53h.53v.53h-.53ZM30.18,59.11v-.53h.53v.53h-.53ZM30.18,60.17v-.53h.53v.53h-.53ZM30.18,62.29v-.53h.53v.53h-.53ZM30.71,57v-.53h.53v.53h-.53ZM30.71,57.53v-.53h.53v.53h-.53ZM30.71,58.59v-.53h.53v.53h-.53ZM30.71,59.65v-.53h.53v.53h-.53ZM30.71,61.23v-.53h.53v.53h-.53ZM30.71,61.77v-.53h.53v.53h-.53ZM30.71,62.29v-.53h.53v.53h-.53ZM30.71,62.82v-.53h.53v.53h-.53ZM31.23,57v-.53h.53v.53h-.53ZM31.23,57.53v-.53h.53v.53h-.53ZM31.23,58.06v-.53h.53v.53h-.53ZM31.23,58.59v-.53h.53v.53h-.53ZM31.23,59.11v-.53h.53v.53h-.53ZM31.23,59.65v-.53h.53v.53h-.53ZM31.23,60.17v-.53h.53v.53h-.53ZM31.23,60.71v-.53h.53v.53h-.53ZM31.23,61.23v-.53h.53v.53h-.53ZM31.23,62.82v-.53h.53v.53h-.53ZM31.23,63.35v-.53h.53v.53h-.53ZM31.77,57v-.53h.53v.53h-.53ZM31.77,57.53v-.53h.53v.53h-.53ZM31.77,58.59v-.53h.53v.53h-.53ZM31.77,59.65v-.53h.53v.53h-.53ZM31.77,61.23v-.53h.53v.53h-.53ZM31.77,61.77v-.53h.53v.53h-.53ZM31.77,62.29v-.53h.53v.53h-.53ZM31.77,62.82v-.53h.53v.53h-.53ZM32.29,57v-.53h.53v.53h-.53ZM32.29,57.53v-.53h.53v.53h-.53ZM32.29,59.11v-.53h.53v.53h-.53ZM32.29,60.17v-.53h.53v.53h-.53ZM32.29,62.29v-.53h.53v.53h-.53ZM32.83,57v-.53h.53v.53h-.53ZM32.83,57.53v-.53h.53v.53h-.53ZM32.83,59.65v-.53h.53v.53h-.53ZM32.83,60.71v-.53h.53v.53h-.53ZM33.35,57.53v-.53h.53v.53h-.53ZM33.35,58.06v-.53h.53v.53h-.53ZM33.35,60.17v-.53h.53v.53h-.53ZM33.35,61.23v-.53h.53v.53h-.53ZM33.89,58.06v-.53h.53v.53h-.53ZM33.89,58.59v-.53h.53v.53h-.53ZM33.89,60.71v-.53h.53v.53h-.53ZM34.41,58.59v-.53h.53v.53h-.53ZM34.41,59.11v-.53h.53v.53h-.53ZM34.94,59.11v-.53h.53v.53h-.53ZM34.94,59.65v-.53h.53v.53h-.53ZM35.47,59.65v-.53h.53v.53h-.53ZM35.47,60.17v-.53h.53v.53h-.53Z"/>
  <path class="cls-3" d="M45,60.17v.53h-.53v.53h-.53v.53h-.53v.53h-.53v.53h-.53v.53h-3.71v-.53h-.53v-.53h-.53v-.53h-.53v-.53h-.53v-.53h-.53v-1.06h.53v.53h.53v.53h.53v.53h.53v.53h.53v.53h1.59v-.53h-.53v-.53h-.53v-.53h-.53v-.53h-.53v-.53h-.53v-.53h.53v-.53h.53v.53h.53v.53h.53v.53h.53v-1.06h-.53v-1.06h-.53v-.53h.53v-.53h.53v-.53h.53v.53h.53v.53h.53v.53h-.53v1.06h-.53v1.06h.53v-.53h.53v-.53h.53v-.53h.53v.53h.53v.53h-.53v.53h-.53v.53h-.53v.53h-.53v.53h-.53v.53h1.59v-.53h.53v-.53h.53v-.53h.53v-.53h.53v-.53h.53v-.53h.53v1.06h-.53ZM38.65,59.11h-.53v.53h.53v-.53ZM39.18,59.65h-.53v.53h.53v-.53ZM39.71,60.17h-.53v.53h.53v-.53ZM40.24,60.71h-.53v.53h.53v-.53ZM40.76,57.53h-.53v1.06h.53v-1.06ZM41.3,60.71h-.53v.53h.53v-.53ZM41.82,60.17h-.53v.53h.53v-.53ZM42.36,59.65h-.53v.53h.53v-.53ZM42.88,59.11h-.53v.53h.53v-.53Z"/>
  <g>
    <path class="cls-3" d="M18.53,50.12v-.53h.53v.53h-.53ZM18.53,50.65v-.53h.53v.53h-.53ZM19.05,49.59v-.53h.53v.53h-.53ZM19.05,50.12v-.53h.53v.53h-.53ZM19.59,49.06v-.53h.53v.53h-.53ZM19.59,49.59v-.53h.53v.53h-.53ZM19.59,51.71v-.53h.53v.53h-.53ZM20.11,48.53v-.53h.53v.53h-.53ZM20.11,49.06v-.53h.53v.53h-.53ZM20.11,51.18v-.53h.53v.53h-.53ZM20.11,52.24v-.53h.53v.53h-.53ZM20.65,48v-.53h.53v.53h-.53ZM20.65,48.53v-.53h.53v.53h-.53ZM20.65,50.65v-.53h.53v.53h-.53ZM20.65,51.71v-.53h.53v.53h-.53ZM21.17,48v-.53h.53v.53h-.53ZM21.17,48.53v-.53h.53v.53h-.53ZM21.17,50.12v-.53h.53v.53h-.53ZM21.17,51.18v-.53h.53v.53h-.53ZM21.17,53.29v-.53h.53v.53h-.53ZM21.71,48v-.53h.53v.53h-.53ZM21.71,48.53v-.53h.53v.53h-.53ZM21.71,49.59v-.53h.53v.53h-.53ZM21.71,50.65v-.53h.53v.53h-.53ZM21.71,52.24v-.53h.53v.53h-.53ZM21.71,52.77v-.53h.53v.53h-.53ZM21.71,53.29v-.53h.53v.53h-.53ZM21.71,53.83v-.53h.53v.53h-.53ZM22.23,48v-.53h.53v.53h-.53ZM22.23,48.53v-.53h.53v.53h-.53ZM22.23,49.06v-.53h.53v.53h-.53ZM22.23,49.59v-.53h.53v.53h-.53ZM22.23,50.12v-.53h.53v.53h-.53ZM22.23,50.65v-.53h.53v.53h-.53ZM22.23,51.18v-.53h.53v.53h-.53ZM22.23,51.71v-.53h.53v.53h-.53ZM22.23,52.24v-.53h.53v.53h-.53ZM22.23,53.83v-.53h.53v.53h-.53ZM22.23,54.35v-.53h.53v.53h-.53ZM22.76,48v-.53h.53v.53h-.53ZM22.76,48.53v-.53h.53v.53h-.53ZM22.76,49.59v-.53h.53v.53h-.53ZM22.76,50.65v-.53h.53v.53h-.53ZM22.76,52.24v-.53h.53v.53h-.53ZM22.76,52.77v-.53h.53v.53h-.53ZM22.76,53.29v-.53h.53v.53h-.53ZM22.76,53.83v-.53h.53v.53h-.53ZM23.29,48v-.53h.53v.53h-.53ZM23.29,48.53v-.53h.53v.53h-.53ZM23.29,50.12v-.53h.53v.53h-.53ZM23.29,51.18v-.53h.53v.53h-.53ZM23.29,53.29v-.53h.53v.53h-.53ZM23.82,48v-.53h.53v.53h-.53ZM23.82,48.53v-.53h.53v.53h-.53ZM23.82,50.65v-.53h.53v.53h-.53ZM23.82,51.71v-.53h.53v.53h-.53ZM24.35,48.53v-.53h.53v.53h-.53ZM24.35,49.06v-.53h.53v.53h-.53ZM24.35,51.18v-.53h.53v.53h-.53ZM24.35,52.24v-.53h.53v.53h-.53ZM24.88,49.06v-.53h.53v.53h-.53ZM24.88,49.59v-.53h.53v.53h-.53ZM24.88,51.71v-.53h.53v.53h-.53ZM25.41,49.59v-.53h.53v.53h-.53ZM25.41,50.12v-.53h.53v.53h-.53ZM25.94,50.12v-.53h.53v.53h-.53ZM25.94,50.65v-.53h.53v.53h-.53ZM26.47,50.65v-.53h.53v.53h-.53ZM26.47,51.18v-.53h.53v.53h-.53Z"/>
    <path class="cls-3" d="M17.31,50.81v.68h-.68v.69h.68v.68h-.68v.69h-6.15v-.69h-.68v-.68h.68v-.69h-.68v-.68h-.69v-2.05h.69v-.68h.68v-.69h2.73v-.68h-.68v-.69h.68v-.68h.69v.68h.68v.69h-.68v.68h2.73v.69h.68v.68h.69v2.05h-.69ZM12.54,50.81h-.69v-.69h-.68v-.68h.68v-.69h.69v-.68h-2.05v.68h-.68v2.05h.68v.68h2.05v-.68ZM16.63,52.18h-6.15v.68h6.15v-.68ZM13.22,48.76h-.68v.69h-.69v.68h.69v.69h.68v-2.05ZM13.9,46.02h-.69v.69h.69v-.69ZM13.9,47.4h-.69v.69h.69v-.69ZM13.9,50.82h-.68v.68h.68v-.68ZM15.27,49.45h-.69v-.69h-.68v2.05h.68v-.69h.69v-.68ZM17.31,48.76h-.68v-.68h-2.05v.68h.69v.69h.68v.68h-.68v.69h-.69v.68h2.05v-.68h.68v-2.05Z"/>
  </g>
  <g>
    <path class="cls-3" d="M44.87,48.6c-.09,0-.27-.21-.32-.27l-.65.63c.06.04.27.21.27.3,0,.07-.06.12-.13.12-.09,0-.26-.21-.32-.26l-.65.62.64.62c.06-.06.23-.26.32-.26.07,0,.13.06.13.12,0,.08-.22.26-.26.31l.64.62c.06-.06.22-.27.32-.27.07,0,.13.06.13.12,0,.09-.23.27-.27.31.06.06.27.21.27.31,0,.07-.07.12-.13.12-.09,0-.27-.21-.32-.27-.17.17-.27.26-.36.28-.01,0-.03.01-.05.01-.1,0-.22-.1-.41-.29-.15.16-.27.24-.36.28-.02.01-.03.01-.06.01-.09,0-.18-.08-.34-.24l-.05-.04-.64.63.05.04c.16.16.25.24.25.34s-.1.21-.3.4c.2.2.3.31.3.41-.01.1-.1.2-.3.39.06.06.27.21.27.3,0,.07-.06.13-.13.13-.09,0-.26-.22-.32-.27-.06.06-.22.27-.32.27-.06,0-.13-.07-.13-.12,0-.09.23-.27.27-.31l-.64-.63c-.06.06-.23.27-.32.27-.07,0-.13-.06-.13-.12,0-.08.22-.26.27-.31l-.65-.62c-.23.2-.43.41-.64.63.06.06.27.22.27.31,0,.07-.07.12-.13.12-.09,0-.27-.21-.32-.27l-.65.63c.06.06.27.21.27.31,0,.06-.06.12-.13.12-.09,0-.26-.22-.32-.27-.06.06-.22.26-.32.26-.06,0-.13-.06-.13-.12,0-.08.23-.26.27-.3-.19-.19-.28-.3-.3-.4,0-.1.1-.21.3-.4-.19-.19-.3-.29-.3-.4,0-.01.01-.03.01-.04.02-.09.13-.19.28-.34l-.64-.63c-.19.19-.3.29-.41.29-.1,0-.2-.09-.41-.29-.19.2-.3.29-.41.29-.1,0-.2-.1-.4-.29-.06.06-.22.27-.32.27-.07,0-.13-.06-.13-.12,0-.09.22-.26.27-.31-.06-.06-.27-.21-.27-.31,0-.06.06-.12.13-.12.09,0,.27.22.32.27l.64-.62c-.06-.06-.26-.22-.26-.31,0-.07.06-.12.13-.12.08,0,.26.21.31.27l.65-.63c-.22-.21-.44-.41-.65-.62-.06.06-.23.27-.32.27-.07,0-.13-.07-.13-.12,0-.09.22-.27.26-.31l-.64-.63c-.06.06-.22.27-.32.27-.07,0-.13-.06-.13-.12,0-.09.22-.26.27-.31-.06-.06-.27-.21-.27-.3,0-.07.07-.12.13-.12.09,0,.27.21.32.26.1-.1.24-.28.41-.28.11,0,.22.09.41.28.19-.2.29-.28.41-.28.1,0,.22.1.4.28l.65-.63c-.17-.17-.26-.28-.27-.41,0-.11.1-.22.27-.39-.19-.19-.27-.29-.27-.42,0-.1.1-.2.27-.37-.06-.06-.26-.22-.26-.31,0-.07.06-.12.13-.12.08,0,.26.21.31.26.06-.06.23-.26.32-.26.07,0,.13.06.13.12,0,.08-.22.26-.27.31l.65.62c.06-.06.22-.27.32-.27.06,0,.13.06.13.12,0,.09-.23.27-.27.31.22.21.42.43.64.63l.65-.62c-.06-.06-.27-.21-.27-.31,0-.07.06-.12.13-.12.09,0,.26.21.32.27l.64-.63c-.06-.04-.27-.21-.27-.3,0-.07.07-.12.13-.12.09,0,.27.21.32.26.06-.06.23-.26.32-.26.07,0,.13.06.13.12,0,.08-.22.26-.27.3.19.2.28.31.28.43-.01.1-.11.2-.28.37.18.18.27.28.3.39,0,.11-.09.21-.3.4l.65.62c.19-.2.31-.29.43-.29.1.02.2.11.37.29.18-.18.28-.27.42-.28.1,0,.2.09.4.28.06-.06.22-.27.31-.27.07,0,.13.06.13.12,0,.09-.22.27-.26.31.06.06.27.21.27.31,0,.07-.07.12-.13.12ZM36.82,47.95l-.24.22.24.23.23-.23-.23-.22ZM36.83,51.13l-.24.22.24.23.23-.23-.23-.22ZM37.23,50.73l-.23.23.23.22.24-.22-.24-.23ZM37.24,48.35l-.23.23.23.22.24-.22-.24-.23ZM37.63,47.95l-.23.22.23.23.24-.23-.24-.22ZM37.63,48.74l-.23.23.23.22.24-.22-.24-.23ZM37.64,50.33l-.23.23.23.22.24-.22-.24-.23ZM37.64,51.13l-.23.22.23.23.24-.23-.24-.22ZM38.04,48.35l-.24.22.24.22.24-.22-.24-.22ZM38.04,49.14l-.23.22.24.23.23-.22-.24-.23ZM38.05,49.93l-.24.23.24.23.24-.23-.24-.23ZM38.05,50.73l-.24.23.24.22.24-.22-.24-.23ZM42.47,48.6s-.01-.03-.01-.04c0-.1.1-.21.3-.39l-.65-.61c-.18.18-.3.28-.43.28-.1-.01-.2-.11-.37-.28-.19.19-.31.28-.41.28-.02,0-.03,0-.06-.01-.09-.02-.19-.11-.35-.27-.17.17-.28.26-.4.28-.11,0-.22-.1-.41-.29-.19.18-.31.27-.43.27-.11-.01-.22-.1-.39-.27l-.65.63c.1.1.28.23.28.4,0,.11-.09.21-.28.4.13.11.32.39.32.4,0,.08-.08.17-.25.33-.02.01-.03.03-.06.06.2.2.28.3.28.42,0,.1-.1.2-.28.38.19.18.3.3.3.4,0,.01-.01.03-.01.04-.02.09-.11.19-.28.34l.64.63c.18-.19.29-.27.41-.28.11,0,.23.09.41.28.17-.18.27-.27.36-.29.01,0,.03-.01.05-.01.1,0,.22.1.4.29.2-.19.29-.29.41-.29.1,0,.22.1.41.29.1-.1.25-.29.42-.29.1.01.2.11.39.29l.64-.63c-.19-.19-.3-.3-.3-.4,0-.11.1-.21.3-.39-.18-.18-.27-.28-.28-.4,0-.11.09-.21.28-.4-.17-.16-.26-.26-.28-.39,0-.11.09-.21.3-.41-.17-.16-.26-.26-.28-.36ZM38.86,45.95l-.23.22.23.23.24-.23-.24-.22ZM38.86,46.74l-.23.23.23.22.24-.22-.24-.23ZM38.86,52.32l-.23.22.23.23.24-.23-.24-.22ZM38.86,53.11l-.23.23.23.23.24-.23-.24-.23ZM39.26,47.13l-.24.21.24.23.23-.23-.23-.21ZM39.26,52.7l-.24.23.24.23.24-.23-.24-.23ZM39.28,46.36l-.24.21.24.22.24-.22-.24-.21ZM39.28,51.92l-.23.22.23.23.24-.23-.24-.22ZM39.68,46.74l-.24.23.24.22.23-.22-.23-.23ZM39.68,52.32l-.24.22.24.23.23-.23-.23-.22ZM40.07,47.14l-.23.23.24.23.23-.23c-.08-.08-.16-.14-.24-.23ZM40.07,51.93l-.23.22.23.22c.08-.09.16-.16.24-.23-.08-.08-.16-.16-.24-.21ZM40.66,49.75c.07.07.26.21.26.3s-.03.12-.14.12-.23-.19-.29-.26c-.1.12-.22.26-.3.26-.09,0-.13-.04-.13-.13,0-.08.15-.19.25-.29-.08-.06-.25-.2-.25-.29,0-.07.06-.13.13-.13.08,0,.24.2.3.26.1-.08.2-.26.31-.26.06,0,.13.02.13.11,0,.1-.19.26-.26.31ZM40.89,47.18l-.24.21.23.22.24-.22-.23-.21ZM40.88,51.91l-.23.23.23.22.24-.22-.24-.23ZM41.3,46.75l-.24.23.24.22.23-.22-.23-.23ZM41.3,52.31l-.24.23.24.22.23-.22-.23-.23ZM41.7,47.15l-.24.21.23.22.24-.22-.23-.21ZM41.71,46.38l-.24.21.23.22.24-.22-.23-.21ZM41.7,51.91l-.23.23.23.22.24-.22-.24-.23ZM41.7,52.69l-.23.22.23.23.24-.23-.24-.22ZM42.11,45.96l-.23.22.23.23.24-.23-.24-.22ZM42.11,46.75l-.23.23.23.22.24-.22-.24-.23ZM42.11,52.31l-.23.23.23.22.24-.22-.24-.23ZM42.11,53.1l-.23.23.23.23.24-.23-.24-.23ZM42.92,50.72l-.24.22.24.23.23-.23-.23-.22ZM42.92,48.31l-.23.21.23.23.24-.23-.24-.21ZM42.93,49.13l-.24.23.23.22c.08-.08.15-.17.24-.23l-.23-.22ZM42.92,49.91l-.23.21.23.22.24-.22-.24-.21ZM43.33,50.32l-.24.23.24.22.23-.22-.23-.23ZM43.33,51.11l-.24.23.24.23.23-.23-.23-.23ZM43.34,47.93l-.24.23.24.23.23-.23-.23-.23ZM43.34,48.73l-.24.23.24.22.23-.22-.23-.23ZM43.74,48.33l-.23.23.23.22.24-.22-.24-.23ZM43.78,50.73l-.24.22.24.23.23-.23-.23-.22ZM44.15,47.93l-.24.23.24.23.24-.23-.24-.23ZM44.14,51.11l-.23.23.23.23.24-.23-.24-.23Z"/>
    <path class="cls-3" d="M35.87,48.78c-.09,0-.27-.21-.32-.27l-.65.63c.06.04.27.21.27.3,0,.07-.06.12-.13.12-.09,0-.26-.21-.32-.26l-.65.62.64.62c.06-.06.23-.26.32-.26.07,0,.13.06.13.12,0,.08-.22.26-.26.31l.64.62c.06-.06.22-.27.32-.27.07,0,.13.06.13.12,0,.09-.23.27-.27.31.06.06.27.21.27.31,0,.07-.07.12-.13.12-.09,0-.27-.21-.32-.27-.17.17-.27.26-.36.28-.01,0-.03.01-.05.01-.1,0-.22-.1-.41-.29-.15.16-.27.24-.36.28-.02.01-.03.01-.06.01-.09,0-.18-.08-.34-.24l-.05-.04-.64.63.05.04c.16.16.25.24.25.34s-.1.21-.3.4c.2.2.3.31.3.41-.01.1-.1.2-.3.39.06.06.27.21.27.3,0,.07-.06.13-.13.13-.09,0-.26-.22-.32-.27-.06.06-.22.27-.32.27-.06,0-.13-.07-.13-.12,0-.09.23-.27.27-.31l-.64-.63c-.06.06-.23.27-.32.27-.07,0-.13-.06-.13-.12,0-.08.22-.26.27-.31l-.65-.62c-.23.2-.43.41-.64.63.06.06.27.22.27.31,0,.07-.07.12-.13.12-.09,0-.27-.21-.32-.27l-.65.63c.06.06.27.21.27.31,0,.06-.06.12-.13.12-.09,0-.26-.22-.32-.27-.06.06-.22.26-.32.26-.06,0-.13-.06-.13-.12,0-.08.23-.26.27-.3-.19-.19-.28-.3-.3-.4,0-.1.1-.21.3-.4-.19-.19-.3-.29-.3-.4,0-.01.01-.03.01-.04.02-.09.13-.19.28-.34l-.64-.63c-.19.19-.3.29-.41.29-.1,0-.2-.09-.41-.29-.19.2-.3.29-.41.29-.1,0-.2-.1-.4-.29-.06.06-.22.27-.32.27-.07,0-.13-.06-.13-.12,0-.09.22-.26.27-.31-.06-.06-.27-.21-.27-.31,0-.06.06-.12.13-.12.09,0,.27.22.32.27l.64-.62c-.06-.06-.26-.22-.26-.31,0-.07.06-.12.13-.12.08,0,.26.21.31.27l.65-.63c-.22-.21-.44-.41-.65-.62-.06.06-.23.27-.32.27-.07,0-.13-.07-.13-.12,0-.09.22-.27.26-.31l-.64-.63c-.06.06-.22.27-.32.27-.07,0-.13-.06-.13-.12,0-.09.22-.26.27-.31-.06-.06-.27-.21-.27-.3,0-.07.07-.12.13-.12.09,0,.27.21.32.26.1-.1.24-.28.41-.28.11,0,.22.09.41.28.19-.2.29-.28.41-.28.1,0,.22.1.4.28l.65-.63c-.17-.17-.26-.28-.27-.41,0-.11.1-.22.27-.39-.19-.19-.27-.29-.27-.42,0-.1.1-.2.27-.37-.06-.06-.26-.22-.26-.31,0-.07.06-.12.13-.12.08,0,.26.21.31.26.06-.06.23-.26.32-.26.07,0,.13.06.13.12,0,.08-.22.26-.27.31l.65.62c.06-.06.22-.27.32-.27.06,0,.13.06.13.12,0,.09-.23.27-.27.31.22.21.42.43.64.63l.65-.62c-.06-.06-.27-.21-.27-.31,0-.07.06-.12.13-.12.09,0,.26.21.32.27l.64-.63c-.06-.04-.27-.21-.27-.3,0-.07.07-.12.13-.12.09,0,.27.21.32.26.06-.06.23-.26.32-.26.07,0,.13.06.13.12,0,.08-.22.26-.27.3.19.2.28.31.28.43-.01.1-.11.2-.28.37.18.18.27.28.3.39,0,.11-.09.21-.3.4l.65.62c.19-.2.31-.29.43-.29.1.02.2.11.37.29.18-.18.28-.27.42-.28.1,0,.2.09.4.28.06-.06.22-.27.31-.27.07,0,.13.06.13.12,0,.09-.22.27-.26.31.06.06.27.21.27.31,0,.07-.07.12-.13.12ZM27.82,48.13l-.24.22.24.23.23-.23-.23-.22ZM27.83,51.31l-.24.22.24.23.23-.23-.23-.22ZM28.23,50.91l-.23.23.23.22.24-.22-.24-.23ZM28.24,48.53l-.23.23.23.22.24-.22-.24-.23ZM28.63,48.13l-.23.22.23.23.24-.23-.24-.22ZM28.63,48.92l-.23.23.23.22.24-.22-.24-.23ZM28.64,50.51l-.23.23.23.22.24-.22-.24-.23ZM28.64,51.31l-.23.22.23.23.24-.23-.24-.22ZM29.04,48.53l-.24.22.24.22.24-.22-.24-.22ZM29.04,49.32l-.23.22.24.23.23-.22-.24-.23ZM29.05,50.11l-.24.23.24.23.24-.23-.24-.23ZM29.05,50.91l-.24.23.24.22.24-.22-.24-.23ZM33.47,48.78s-.01-.03-.01-.04c0-.1.1-.21.3-.39l-.65-.61c-.18.18-.3.28-.43.28-.1-.01-.2-.11-.37-.28-.19.19-.31.28-.41.28-.02,0-.03,0-.06-.01-.09-.02-.19-.11-.35-.27-.17.17-.28.26-.4.28-.11,0-.22-.1-.41-.29-.19.18-.31.27-.43.27-.11-.01-.22-.1-.39-.27l-.65.63c.1.1.28.23.28.4,0,.11-.09.21-.28.4.13.11.32.39.32.4,0,.08-.08.17-.25.33-.02.01-.03.03-.06.06.2.2.28.3.28.42,0,.1-.1.2-.28.38.19.18.3.3.3.4,0,.01-.01.03-.01.04-.02.09-.11.19-.28.34l.64.63c.18-.19.29-.27.41-.28.11,0,.23.09.41.28.17-.18.27-.27.36-.29.01,0,.03-.01.05-.01.1,0,.22.1.4.29.2-.19.29-.29.41-.29.1,0,.22.1.41.29.1-.1.25-.29.42-.29.1.01.2.11.39.29l.64-.63c-.19-.19-.3-.3-.3-.4,0-.11.1-.21.3-.39-.18-.18-.27-.28-.28-.4,0-.11.09-.21.28-.4-.17-.16-.26-.26-.28-.39,0-.11.09-.21.3-.41-.17-.16-.26-.26-.28-.36ZM29.86,46.13l-.23.22.23.23.24-.23-.24-.22ZM29.86,46.92l-.23.23.23.22.24-.22-.24-.23ZM29.86,52.5l-.23.22.23.23.24-.23-.24-.22ZM29.86,53.29l-.23.23.23.23.24-.23-.24-.23ZM30.26,47.31l-.24.21.24.23.23-.23-.23-.21ZM30.26,52.88l-.24.23.24.23.24-.23-.24-.23ZM30.28,46.54l-.24.21.24.22.24-.22-.24-.21ZM30.28,52.1l-.23.22.23.23.24-.23-.24-.22ZM30.68,46.92l-.24.23.24.22.23-.22-.23-.23ZM30.68,52.5l-.24.22.24.23.23-.23-.23-.22ZM31.07,47.32l-.23.23.24.23.23-.23c-.08-.08-.16-.14-.24-.23ZM31.07,52.11l-.23.22.23.22c.08-.09.16-.16.24-.23-.08-.08-.16-.16-.24-.21ZM31.66,49.93c.07.07.26.21.26.3s-.03.12-.14.12-.23-.19-.29-.26c-.1.12-.22.26-.3.26-.09,0-.13-.04-.13-.13,0-.08.15-.19.25-.29-.08-.06-.25-.2-.25-.29,0-.07.06-.13.13-.13.08,0,.24.2.3.26.1-.08.2-.26.31-.26.06,0,.13.02.13.11,0,.1-.19.26-.26.31ZM31.89,47.35l-.24.21.23.22.24-.22-.23-.21ZM31.88,52.09l-.23.23.23.22.24-.22-.24-.23ZM32.3,46.93l-.24.23.24.22.23-.22-.23-.23ZM32.3,52.49l-.24.23.24.22.23-.22-.23-.23ZM32.7,47.33l-.24.21.23.22.24-.22-.23-.21ZM32.71,46.55l-.24.21.23.22.24-.22-.23-.21ZM32.7,52.09l-.23.23.23.22.24-.22-.24-.23ZM32.7,52.86l-.23.22.23.23.24-.23-.24-.22ZM33.11,46.14l-.23.22.23.23.24-.23-.24-.22ZM33.11,46.93l-.23.23.23.22.24-.22-.24-.23ZM33.11,52.49l-.23.23.23.22.24-.22-.24-.23ZM33.11,53.28l-.23.23.23.23.24-.23-.24-.23ZM33.92,50.9l-.24.22.24.23.23-.23-.23-.22ZM33.92,48.49l-.23.21.23.23.24-.23-.24-.21ZM33.93,49.31l-.24.23.23.22c.08-.08.15-.17.24-.23l-.23-.22ZM33.92,50.09l-.23.21.23.22.24-.22-.24-.21ZM34.33,50.5l-.24.23.24.22.23-.22-.23-.23ZM34.33,51.29l-.24.23.24.23.23-.23-.23-.23ZM34.34,48.11l-.24.23.24.23.23-.23-.23-.23ZM34.34,48.91l-.24.23.24.22.23-.22-.23-.23ZM34.74,48.51l-.23.23.23.22.24-.22-.24-.23ZM34.78,50.91l-.24.22.24.23.23-.23-.23-.22ZM35.15,48.11l-.24.23.24.23.24-.23-.24-.23ZM35.14,51.29l-.23.23.23.23.24-.23-.24-.23Z"/>
  </g>
  <g>
    <path class="cls-3" d="M54,51.18v.53h-.53v.53h-.53v.53h-.53v.53h-.53v.53h-.53v.53h-3.71v-.53h-.53v-.53h-.53v-.53h-.53v-.53h-.53v-.53h-.53v-1.06h.53v.53h.53v.53h.53v.53h.53v.53h.53v.53h1.59v-.53h-.53v-.53h-.53v-.53h-.53v-.53h-.53v-.53h-.53v-.53h.53v-.53h.53v.53h.53v.53h.53v.53h.53v-1.06h-.53v-1.06h-.53v-.53h.53v-.53h.53v-.53h.53v.53h.53v.53h.53v.53h-.53v1.06h-.53v1.06h.53v-.53h.53v-.53h.53v-.53h.53v.53h.53v.53h-.53v.53h-.53v.53h-.53v.53h-.53v.53h-.53v.53h1.59v-.53h.53v-.53h.53v-.53h.53v-.53h.53v-.53h.53v-.53h.53v1.06h-.53ZM47.64,50.12h-.53v.53h.53v-.53ZM48.18,50.65h-.53v.53h.53v-.53ZM48.7,51.18h-.53v.53h.53v-.53ZM49.24,51.71h-.53v.53h.53v-.53ZM49.76,48.53h-.53v1.06h.53v-1.06ZM50.29,51.71h-.53v.53h.53v-.53ZM50.82,51.18h-.53v.53h.53v-.53ZM51.35,50.65h-.53v.53h.53v-.53ZM51.88,50.12h-.53v.53h.53v-.53Z"/>
    <path class="cls-3" d="M62.31,50.81v.68h-.68v.69h.68v.68h-.68v.69h-6.15v-.69h-.68v-.68h.68v-.69h-.68v-.68h-.69v-2.05h.69v-.68h.68v-.69h2.73v-.68h-.68v-.69h.68v-.68h.69v.68h.68v.69h-.68v.68h2.73v.69h.68v.68h.69v2.05h-.69ZM57.54,50.81h-.69v-.69h-.68v-.68h.68v-.69h.69v-.68h-2.05v.68h-.68v2.05h.68v.68h2.05v-.68ZM61.63,52.18h-6.15v.68h6.15v-.68ZM58.22,48.76h-.68v.69h-.69v.68h.69v.69h.68v-2.05ZM58.9,46.02h-.69v.69h.69v-.69ZM58.9,47.4h-.69v.69h.69v-.69ZM58.9,50.82h-.68v.68h.68v-.68ZM60.27,49.45h-.69v-.69h-.68v2.05h.68v-.69h.69v-.68ZM62.31,48.76h-.68v-.68h-2.05v.68h.69v.69h.68v.68h-.68v.69h-.69v.68h2.05v-.68h.68v-2.05Z"/>
  </g>
  <g>
    <path class="cls-3" d="M18.53,32.12v-.53h.53v.53h-.53ZM18.53,32.65v-.53h.53v.53h-.53ZM19.05,31.59v-.53h.53v.53h-.53ZM19.05,32.12v-.53h.53v.53h-.53ZM19.59,31.06v-.53h.53v.53h-.53ZM19.59,31.59v-.53h.53v.53h-.53ZM19.59,33.71v-.53h.53v.53h-.53ZM20.11,30.53v-.53h.53v.53h-.53ZM20.11,31.06v-.53h.53v.53h-.53ZM20.11,33.18v-.53h.53v.53h-.53ZM20.11,34.24v-.53h.53v.53h-.53ZM20.65,30v-.53h.53v.53h-.53ZM20.65,30.53v-.53h.53v.53h-.53ZM20.65,32.65v-.53h.53v.53h-.53ZM20.65,33.71v-.53h.53v.53h-.53ZM21.17,30v-.53h.53v.53h-.53ZM21.17,30.53v-.53h.53v.53h-.53ZM21.17,32.12v-.53h.53v.53h-.53ZM21.17,33.18v-.53h.53v.53h-.53ZM21.17,35.29v-.53h.53v.53h-.53ZM21.71,30v-.53h.53v.53h-.53ZM21.71,30.53v-.53h.53v.53h-.53ZM21.71,31.59v-.53h.53v.53h-.53ZM21.71,32.65v-.53h.53v.53h-.53ZM21.71,34.24v-.53h.53v.53h-.53ZM21.71,34.77v-.53h.53v.53h-.53ZM21.71,35.29v-.53h.53v.53h-.53ZM21.71,35.83v-.53h.53v.53h-.53ZM22.23,30v-.53h.53v.53h-.53ZM22.23,30.53v-.53h.53v.53h-.53ZM22.23,31.06v-.53h.53v.53h-.53ZM22.23,31.59v-.53h.53v.53h-.53ZM22.23,32.12v-.53h.53v.53h-.53ZM22.23,32.65v-.53h.53v.53h-.53ZM22.23,33.18v-.53h.53v.53h-.53ZM22.23,33.71v-.53h.53v.53h-.53ZM22.23,34.24v-.53h.53v.53h-.53ZM22.23,35.83v-.53h.53v.53h-.53ZM22.23,36.35v-.53h.53v.53h-.53ZM22.76,30v-.53h.53v.53h-.53ZM22.76,30.53v-.53h.53v.53h-.53ZM22.76,31.59v-.53h.53v.53h-.53ZM22.76,32.65v-.53h.53v.53h-.53ZM22.76,34.24v-.53h.53v.53h-.53ZM22.76,34.77v-.53h.53v.53h-.53ZM22.76,35.29v-.53h.53v.53h-.53ZM22.76,35.83v-.53h.53v.53h-.53ZM23.29,30v-.53h.53v.53h-.53ZM23.29,30.53v-.53h.53v.53h-.53ZM23.29,32.12v-.53h.53v.53h-.53ZM23.29,33.18v-.53h.53v.53h-.53ZM23.29,35.29v-.53h.53v.53h-.53ZM23.82,30v-.53h.53v.53h-.53ZM23.82,30.53v-.53h.53v.53h-.53ZM23.82,32.65v-.53h.53v.53h-.53ZM23.82,33.71v-.53h.53v.53h-.53ZM24.35,30.53v-.53h.53v.53h-.53ZM24.35,31.06v-.53h.53v.53h-.53ZM24.35,33.18v-.53h.53v.53h-.53ZM24.35,34.24v-.53h.53v.53h-.53ZM24.88,31.06v-.53h.53v.53h-.53ZM24.88,31.59v-.53h.53v.53h-.53ZM24.88,33.71v-.53h.53v.53h-.53ZM25.41,31.59v-.53h.53v.53h-.53ZM25.41,32.12v-.53h.53v.53h-.53ZM25.94,32.12v-.53h.53v.53h-.53ZM25.94,32.65v-.53h.53v.53h-.53ZM26.47,32.65v-.53h.53v.53h-.53ZM26.47,33.18v-.53h.53v.53h-.53Z"/>
    <g>
      <path class="cls-3" d="M18,24.18v.53h-.53v.53h-.53v.53h-.53v.53h-.53v.53h-.53v.53h-3.71v-.53h-.53v-.53h-.53v-.53h-.53v-.53h-.53v-.53h-.53v-1.06h.53v.53h.53v.53h.53v.53h.53v.53h.53v.53h1.59v-.53h-.53v-.53h-.53v-.53h-.53v-.53h-.53v-.53h-.53v-.53h.53v-.53h.53v.53h.53v.53h.53v.53h.53v-1.06h-.53v-1.06h-.53v-.53h.53v-.53h.53v-.53h.53v.53h.53v.53h.53v.53h-.53v1.06h-.53v1.06h.53v-.53h.53v-.53h.53v-.53h.53v.53h.53v.53h-.53v.53h-.53v.53h-.53v.53h-.53v.53h-.53v.53h1.59v-.53h.53v-.53h.53v-.53h.53v-.53h.53v-.53h.53v-.53h.53v1.06h-.53ZM11.64,23.12h-.53v.53h.53v-.53ZM12.18,23.65h-.53v.53h.53v-.53ZM12.7,24.18h-.53v.53h.53v-.53ZM13.24,24.71h-.53v.53h.53v-.53ZM13.76,21.53h-.53v1.06h.53v-1.06ZM14.29,24.71h-.53v.53h.53v-.53ZM14.82,24.18h-.53v.53h.53v-.53ZM15.35,23.65h-.53v.53h.53v-.53ZM15.88,23.12h-.53v.53h.53v-.53Z"/>
      <path class="cls-3" d="M18.53,23.12v-.53h.53v.53h-.53ZM18.53,23.65v-.53h.53v.53h-.53ZM19.05,22.59v-.53h.53v.53h-.53ZM19.05,23.12v-.53h.53v.53h-.53ZM19.59,22.06v-.53h.53v.53h-.53ZM19.59,22.59v-.53h.53v.53h-.53ZM19.59,24.71v-.53h.53v.53h-.53ZM20.11,21.53v-.53h.53v.53h-.53ZM20.11,22.06v-.53h.53v.53h-.53ZM20.11,24.18v-.53h.53v.53h-.53ZM20.11,25.24v-.53h.53v.53h-.53ZM20.65,21v-.53h.53v.53h-.53ZM20.65,21.53v-.53h.53v.53h-.53ZM20.65,23.65v-.53h.53v.53h-.53ZM20.65,24.71v-.53h.53v.53h-.53ZM21.17,21v-.53h.53v.53h-.53ZM21.17,21.53v-.53h.53v.53h-.53ZM21.17,23.12v-.53h.53v.53h-.53ZM21.17,24.18v-.53h.53v.53h-.53ZM21.17,26.29v-.53h.53v.53h-.53ZM21.71,21v-.53h.53v.53h-.53ZM21.71,21.53v-.53h.53v.53h-.53ZM21.71,22.59v-.53h.53v.53h-.53ZM21.71,23.65v-.53h.53v.53h-.53ZM21.71,25.24v-.53h.53v.53h-.53ZM21.71,25.77v-.53h.53v.53h-.53ZM21.71,26.29v-.53h.53v.53h-.53ZM21.71,26.83v-.53h.53v.53h-.53ZM22.23,21v-.53h.53v.53h-.53ZM22.23,21.53v-.53h.53v.53h-.53ZM22.23,22.06v-.53h.53v.53h-.53ZM22.23,22.59v-.53h.53v.53h-.53ZM22.23,23.12v-.53h.53v.53h-.53ZM22.23,23.65v-.53h.53v.53h-.53ZM22.23,24.18v-.53h.53v.53h-.53ZM22.23,24.71v-.53h.53v.53h-.53ZM22.23,25.24v-.53h.53v.53h-.53ZM22.23,26.83v-.53h.53v.53h-.53ZM22.23,27.35v-.53h.53v.53h-.53ZM22.76,21v-.53h.53v.53h-.53ZM22.76,21.53v-.53h.53v.53h-.53ZM22.76,22.59v-.53h.53v.53h-.53ZM22.76,23.65v-.53h.53v.53h-.53ZM22.76,25.24v-.53h.53v.53h-.53ZM22.76,25.77v-.53h.53v.53h-.53ZM22.76,26.29v-.53h.53v.53h-.53ZM22.76,26.83v-.53h.53v.53h-.53ZM23.29,21v-.53h.53v.53h-.53ZM23.29,21.53v-.53h.53v.53h-.53ZM23.29,23.12v-.53h.53v.53h-.53ZM23.29,24.18v-.53h.53v.53h-.53ZM23.29,26.29v-.53h.53v.53h-.53ZM23.82,21v-.53h.53v.53h-.53ZM23.82,21.53v-.53h.53v.53h-.53ZM23.82,23.65v-.53h.53v.53h-.53ZM23.82,24.71v-.53h.53v.53h-.53ZM24.35,21.53v-.53h.53v.53h-.53ZM24.35,22.06v-.53h.53v.53h-.53ZM24.35,24.18v-.53h.53v.53h-.53ZM24.35,25.24v-.53h.53v.53h-.53ZM24.88,22.06v-.53h.53v.53h-.53ZM24.88,22.59v-.53h.53v.53h-.53ZM24.88,24.71v-.53h.53v.53h-.53ZM25.41,22.59v-.53h.53v.53h-.53ZM25.41,23.12v-.53h.53v.53h-.53ZM25.94,23.12v-.53h.53v.53h-.53ZM25.94,23.65v-.53h.53v.53h-.53ZM26.47,23.65v-.53h.53v.53h-.53ZM26.47,24.18v-.53h.53v.53h-.53Z"/>
      <path class="cls-3" d="M45,23.12v-.53h.53v.53h-.53ZM45,23.65v-.53h.53v.53h-.53ZM45.52,22.59v-.53h.53v.53h-.53ZM45.52,23.12v-.53h.53v.53h-.53ZM46.05,22.06v-.53h.53v.53h-.53ZM46.05,22.59v-.53h.53v.53h-.53ZM46.05,24.71v-.53h.53v.53h-.53ZM46.58,21.53v-.53h.53v.53h-.53ZM46.58,22.06v-.53h.53v.53h-.53ZM46.58,24.18v-.53h.53v.53h-.53ZM46.58,25.24v-.53h.53v.53h-.53ZM47.11,21v-.53h.53v.53h-.53ZM47.11,21.53v-.53h.53v.53h-.53ZM47.11,23.65v-.53h.53v.53h-.53ZM47.11,24.71v-.53h.53v.53h-.53ZM47.64,21v-.53h.53v.53h-.53ZM47.64,21.53v-.53h.53v.53h-.53ZM47.64,23.12v-.53h.53v.53h-.53ZM47.64,24.18v-.53h.53v.53h-.53ZM47.64,26.29v-.53h.53v.53h-.53ZM48.17,21v-.53h.53v.53h-.53ZM48.17,21.53v-.53h.53v.53h-.53ZM48.17,22.59v-.53h.53v.53h-.53ZM48.17,23.65v-.53h.53v.53h-.53ZM48.17,25.24v-.53h.53v.53h-.53ZM48.17,25.77v-.53h.53v.53h-.53ZM48.17,26.29v-.53h.53v.53h-.53ZM48.17,26.83v-.53h.53v.53h-.53ZM48.7,21v-.53h.53v.53h-.53ZM48.7,21.53v-.53h.53v.53h-.53ZM48.7,22.06v-.53h.53v.53h-.53ZM48.7,22.59v-.53h.53v.53h-.53ZM48.7,23.12v-.53h.53v.53h-.53ZM48.7,23.65v-.53h.53v.53h-.53ZM48.7,24.18v-.53h.53v.53h-.53ZM48.7,24.71v-.53h.53v.53h-.53ZM48.7,25.24v-.53h.53v.53h-.53ZM48.7,26.83v-.53h.53v.53h-.53ZM48.7,27.35v-.53h.53v.53h-.53ZM49.23,21v-.53h.53v.53h-.53ZM49.23,21.53v-.53h.53v.53h-.53ZM49.23,22.59v-.53h.53v.53h-.53ZM49.23,23.65v-.53h.53v.53h-.53ZM49.23,25.24v-.53h.53v.53h-.53ZM49.23,25.77v-.53h.53v.53h-.53ZM49.23,26.29v-.53h.53v.53h-.53ZM49.23,26.83v-.53h.53v.53h-.53ZM49.76,21v-.53h.53v.53h-.53ZM49.76,21.53v-.53h.53v.53h-.53ZM49.76,23.12v-.53h.53v.53h-.53ZM49.76,24.18v-.53h.53v.53h-.53ZM49.76,26.29v-.53h.53v.53h-.53ZM50.29,21v-.53h.53v.53h-.53ZM50.29,21.53v-.53h.53v.53h-.53ZM50.29,23.65v-.53h.53v.53h-.53ZM50.29,24.71v-.53h.53v.53h-.53ZM50.82,21.53v-.53h.53v.53h-.53ZM50.82,22.06v-.53h.53v.53h-.53ZM50.82,24.18v-.53h.53v.53h-.53ZM50.82,25.24v-.53h.53v.53h-.53ZM51.35,22.06v-.53h.53v.53h-.53ZM51.35,22.59v-.53h.53v.53h-.53ZM51.35,24.71v-.53h.53v.53h-.53ZM51.87,22.59v-.53h.53v.53h-.53ZM51.87,23.12v-.53h.53v.53h-.53ZM52.41,23.12v-.53h.53v.53h-.53ZM52.41,23.65v-.53h.53v.53h-.53ZM52.93,23.65v-.53h.53v.53h-.53ZM52.93,24.18v-.53h.53v.53h-.53Z"/>
      <path class="cls-3" d="M17.19,14.81v.68h-.68v.69h.68v.68h-.68v.69h-6.15v-.69h-.68v-.68h.68v-.69h-.68v-.68h-.69v-2.05h.69v-.68h.68v-.69h2.73v-.68h-.68v-.69h.68v-.68h.69v.68h.68v.69h-.68v.68h2.73v.69h.68v.68h.69v2.05h-.69ZM12.42,14.81h-.69v-.69h-.68v-.68h.68v-.69h.69v-.68h-2.05v.68h-.68v2.05h.68v.68h2.05v-.68ZM16.51,16.18h-6.15v.68h6.15v-.68ZM13.1,12.76h-.68v.69h-.69v.68h.69v.69h.68v-2.05ZM13.78,10.02h-.69v.69h.69v-.69ZM13.78,11.4h-.69v.69h.69v-.69ZM13.78,14.82h-.68v.68h.68v-.68ZM15.15,13.45h-.69v-.69h-.68v2.05h.68v-.69h.69v-.68ZM17.19,12.76h-.68v-.68h-2.05v.68h.69v.69h.68v.68h-.68v.69h-.69v.68h2.05v-.68h.68v-2.05Z"/>
      <path class="cls-3" d="M62.19,14.81v.68h-.68v.69h.68v.68h-.68v.69h-6.15v-.69h-.68v-.68h.68v-.69h-.68v-.68h-.69v-2.05h.69v-.68h.68v-.69h2.73v-.68h-.68v-.69h.68v-.68h.69v.68h.68v.69h-.68v.68h2.73v.69h.68v.68h.69v2.05h-.69ZM57.42,14.81h-.69v-.69h-.68v-.68h.68v-.69h.69v-.68h-2.05v.68h-.68v2.05h.68v.68h2.05v-.68ZM61.51,16.18h-6.15v.68h6.15v-.68ZM58.1,12.76h-.68v.69h-.69v.68h.69v.69h.68v-2.05ZM58.78,10.02h-.69v.69h.69v-.69ZM58.78,11.4h-.69v.69h.69v-.69ZM58.78,14.82h-.68v.68h.68v-.68ZM60.15,13.45h-.69v-.69h-.68v2.05h.68v-.69h.69v-.68ZM62.19,12.76h-.68v-.68h-2.05v.68h.69v.69h.68v.68h-.68v.69h-.69v.68h2.05v-.68h.68v-2.05Z"/>
    </g>
    <path class="cls-3" d="M17.91,30.78c-.09,0-.27-.21-.32-.27l-.65.63c.06.04.27.21.27.3,0,.07-.06.12-.13.12-.09,0-.26-.21-.32-.26l-.65.62.64.62c.06-.06.23-.26.32-.26.07,0,.13.06.13.12,0,.08-.22.26-.26.31l.64.62c.06-.06.22-.27.32-.27.07,0,.13.06.13.12,0,.09-.23.27-.27.31.06.06.27.21.27.31,0,.07-.07.12-.13.12-.09,0-.27-.21-.32-.27-.17.17-.27.26-.36.28-.01,0-.03.01-.05.01-.1,0-.22-.1-.41-.29-.15.16-.27.24-.36.28-.02.01-.03.01-.06.01-.09,0-.18-.08-.34-.24l-.05-.04-.64.63.05.04c.16.16.25.24.25.34s-.1.21-.3.4c.2.2.3.31.3.41-.01.1-.1.2-.3.39.06.06.27.21.27.3,0,.07-.06.13-.13.13-.09,0-.26-.22-.32-.27-.06.06-.22.27-.32.27-.06,0-.13-.07-.13-.12,0-.09.23-.27.27-.31l-.64-.63c-.06.06-.23.27-.32.27-.07,0-.13-.06-.13-.12,0-.08.22-.26.27-.31l-.65-.62c-.23.2-.43.41-.64.63.06.06.27.22.27.31,0,.07-.07.12-.13.12-.09,0-.27-.21-.32-.27l-.65.63c.06.06.27.21.27.31,0,.06-.06.12-.13.12-.09,0-.26-.22-.32-.27-.06.06-.22.26-.32.26-.06,0-.13-.06-.13-.12,0-.08.23-.26.27-.3-.19-.19-.28-.3-.3-.4,0-.1.1-.21.3-.4-.19-.19-.3-.29-.3-.4,0-.01.01-.03.01-.04.02-.09.13-.19.28-.34l-.64-.63c-.19.19-.3.29-.41.29-.1,0-.2-.09-.41-.29-.19.2-.3.29-.41.29-.1,0-.2-.1-.4-.29-.06.06-.22.27-.32.27-.07,0-.13-.06-.13-.12,0-.09.22-.26.27-.31-.06-.06-.27-.21-.27-.31,0-.06.06-.12.13-.12.09,0,.27.22.32.27l.64-.62c-.06-.06-.26-.22-.26-.31,0-.07.06-.12.13-.12.08,0,.26.21.31.27l.65-.63c-.22-.21-.44-.41-.65-.62-.06.06-.23.27-.32.27-.07,0-.13-.07-.13-.12,0-.09.22-.27.26-.31l-.64-.63c-.06.06-.22.27-.32.27-.07,0-.13-.06-.13-.12,0-.09.22-.26.27-.31-.06-.06-.27-.21-.27-.3,0-.07.07-.12.13-.12.09,0,.27.21.32.26.1-.1.24-.28.41-.28.11,0,.22.09.41.28.19-.2.29-.28.41-.28.1,0,.22.1.4.28l.65-.63c-.17-.17-.26-.28-.27-.41,0-.11.1-.22.27-.39-.19-.19-.27-.29-.27-.42,0-.1.1-.2.27-.37-.06-.06-.26-.22-.26-.31,0-.07.06-.12.13-.12.08,0,.26.21.31.26.06-.06.23-.26.32-.26.07,0,.13.06.13.12,0,.08-.22.26-.27.31l.65.62c.06-.06.22-.27.32-.27.06,0,.13.06.13.12,0,.09-.23.27-.27.31.22.21.42.43.64.63l.65-.62c-.06-.06-.27-.21-.27-.31,0-.07.06-.12.13-.12.09,0,.26.21.32.27l.64-.63c-.06-.04-.27-.21-.27-.3,0-.07.07-.12.13-.12.09,0,.27.21.32.26.06-.06.23-.26.32-.26.07,0,.13.06.13.12,0,.08-.22.26-.27.3.19.2.28.31.28.43-.01.1-.11.2-.28.37.18.18.27.28.3.39,0,.11-.09.21-.3.4l.65.62c.19-.2.31-.29.43-.29.1.02.2.11.37.29.18-.18.28-.27.42-.28.1,0,.2.09.4.28.06-.06.22-.27.31-.27.07,0,.13.06.13.12,0,.09-.22.27-.26.31.06.06.27.21.27.31,0,.07-.07.12-.13.12ZM9.85,30.13l-.24.22.24.23.23-.23-.23-.22ZM9.86,33.31l-.24.22.24.23.23-.23-.23-.22ZM10.26,32.91l-.23.23.23.22.24-.22-.24-.23ZM10.27,30.53l-.23.23.23.22.24-.22-.24-.23ZM10.66,30.13l-.23.22.23.23.24-.23-.24-.22ZM10.66,30.92l-.23.23.23.22.24-.22-.24-.23ZM10.67,32.51l-.23.23.23.22.24-.22-.24-.23ZM10.67,33.31l-.23.22.23.23.24-.23-.24-.22ZM11.07,30.53l-.24.22.24.22.24-.22-.24-.22ZM11.07,31.32l-.23.22.24.23.23-.22-.24-.23ZM11.08,32.11l-.24.23.24.23.24-.23-.24-.23ZM11.08,32.91l-.24.23.24.22.24-.22-.24-.23ZM15.51,30.78s-.01-.03-.01-.04c0-.1.1-.21.3-.39l-.65-.61c-.18.18-.3.28-.43.28-.1-.01-.2-.11-.37-.28-.19.19-.31.28-.41.28-.02,0-.03,0-.06-.01-.09-.02-.19-.11-.35-.27-.17.17-.28.26-.4.28-.11,0-.22-.1-.41-.29-.19.18-.31.27-.43.27-.11-.01-.22-.1-.39-.27l-.65.63c.1.1.28.23.28.4,0,.11-.09.21-.28.4.13.11.32.39.32.4,0,.08-.08.17-.25.33-.02.01-.03.03-.06.06.2.2.28.3.28.42,0,.1-.1.2-.28.38.19.18.3.3.3.4,0,.01-.01.03-.01.04-.02.09-.11.19-.28.34l.64.63c.18-.19.29-.27.41-.28.11,0,.23.09.41.28.17-.18.27-.27.36-.29.01,0,.03-.01.05-.01.1,0,.22.1.4.29.2-.19.29-.29.41-.29.1,0,.22.1.41.29.1-.1.25-.29.42-.29.1.01.2.11.39.29l.64-.63c-.19-.19-.3-.3-.3-.4,0-.11.1-.21.3-.39-.18-.18-.27-.28-.28-.4,0-.11.09-.21.28-.4-.17-.16-.26-.26-.28-.39,0-.11.09-.21.3-.41-.17-.16-.26-.26-.28-.36ZM11.89,28.13l-.23.22.23.23.24-.23-.24-.22ZM11.89,28.92l-.23.23.23.22.24-.22-.24-.23ZM11.89,34.5l-.23.22.23.23.24-.23-.24-.22ZM11.89,35.29l-.23.23.23.23.24-.23-.24-.23ZM12.29,29.31l-.24.21.24.23.23-.23-.23-.21ZM12.29,34.88l-.24.23.24.23.24-.23-.24-.23ZM12.31,28.54l-.24.21.24.22.24-.22-.24-.21ZM12.31,34.1l-.23.22.23.23.24-.23-.24-.22ZM12.71,28.92l-.24.23.24.22.23-.22-.23-.23ZM12.71,34.5l-.24.22.24.23.23-.23-.23-.22ZM13.11,29.32l-.23.23.24.23.23-.23c-.08-.08-.16-.14-.24-.23ZM13.11,34.11l-.23.22.23.22c.08-.09.16-.16.24-.23-.08-.08-.16-.16-.24-.21ZM13.69,31.93c.07.07.26.21.26.3s-.03.12-.14.12-.23-.19-.29-.26c-.1.12-.22.26-.3.26-.09,0-.13-.04-.13-.13,0-.08.15-.19.25-.29-.08-.06-.25-.2-.25-.29,0-.07.06-.13.13-.13.08,0,.24.2.3.26.1-.08.2-.26.31-.26.06,0,.13.02.13.11,0,.1-.19.26-.26.31ZM13.93,29.35l-.24.21.23.22.24-.22-.23-.21ZM13.91,34.09l-.23.23.23.22.24-.22-.24-.23ZM14.34,28.93l-.24.23.24.22.23-.22-.23-.23ZM14.34,34.49l-.24.23.24.22.23-.22-.23-.23ZM14.73,29.33l-.24.21.23.22.24-.22-.23-.21ZM14.74,28.55l-.24.21.23.22.24-.22-.23-.21ZM14.73,34.09l-.23.23.23.22.24-.22-.24-.23ZM14.73,34.86l-.23.22.23.23.24-.23-.24-.22ZM15.14,28.14l-.23.22.23.23.24-.23-.24-.22ZM15.14,28.93l-.23.23.23.22.24-.22-.24-.23ZM15.14,34.49l-.23.23.23.22.24-.22-.24-.23ZM15.14,35.28l-.23.23.23.23.24-.23-.24-.23ZM15.95,32.9l-.24.22.24.23.23-.23-.23-.22ZM15.95,30.49l-.23.21.23.23.24-.23-.24-.21ZM15.96,31.31l-.24.23.23.22c.08-.08.15-.17.24-.23l-.23-.22ZM15.95,32.09l-.23.21.23.22.24-.22-.24-.21ZM16.36,32.5l-.24.23.24.22.23-.22-.23-.23ZM16.36,33.29l-.24.23.24.23.23-.23-.23-.23ZM16.37,30.11l-.24.23.24.23.23-.23-.23-.23ZM16.37,30.91l-.24.23.24.22.23-.22-.23-.23ZM16.77,30.51l-.23.23.23.22.24-.22-.24-.23ZM16.82,32.91l-.24.22.24.23.23-.23-.23-.22ZM17.18,30.11l-.24.23.24.23.24-.23-.24-.23ZM17.17,33.29l-.23.23.23.23.24-.23-.24-.23Z"/>
  </g>
  <g>
    <path class="cls-3" d="M36,33.18v.53h-.53v.53h-.53v.53h-.53v.53h-.53v.53h-.53v.53h-3.71v-.53h-.53v-.53h-.53v-.53h-.53v-.53h-.53v-.53h-.53v-1.06h.53v.53h.53v.53h.53v.53h.53v.53h.53v.53h1.59v-.53h-.53v-.53h-.53v-.53h-.53v-.53h-.53v-.53h-.53v-.53h.53v-.53h.53v.53h.53v.53h.53v.53h.53v-1.06h-.53v-1.06h-.53v-.53h.53v-.53h.53v-.53h.53v.53h.53v.53h.53v.53h-.53v1.06h-.53v1.06h.53v-.53h.53v-.53h.53v-.53h.53v.53h.53v.53h-.53v.53h-.53v.53h-.53v.53h-.53v.53h-.53v.53h1.59v-.53h.53v-.53h.53v-.53h.53v-.53h.53v-.53h.53v-.53h.53v1.06h-.53ZM29.64,32.12h-.53v.53h.53v-.53ZM30.18,32.65h-.53v.53h.53v-.53ZM30.7,33.18h-.53v.53h.53v-.53ZM31.24,33.71h-.53v.53h.53v-.53ZM31.76,30.53h-.53v1.06h.53v-1.06ZM32.29,33.71h-.53v.53h.53v-.53ZM32.82,33.18h-.53v.53h.53v-.53ZM33.35,32.65h-.53v.53h.53v-.53ZM33.88,32.12h-.53v.53h.53v-.53Z"/>
    <path class="cls-3" d="M36.53,32.12v-.53h.53v.53h-.53ZM36.53,32.65v-.53h.53v.53h-.53ZM37.05,31.59v-.53h.53v.53h-.53ZM37.05,32.12v-.53h.53v.53h-.53ZM37.59,31.06v-.53h.53v.53h-.53ZM37.59,31.59v-.53h.53v.53h-.53ZM37.59,33.71v-.53h.53v.53h-.53ZM38.11,30.53v-.53h.53v.53h-.53ZM38.11,31.06v-.53h.53v.53h-.53ZM38.11,33.18v-.53h.53v.53h-.53ZM38.11,34.24v-.53h.53v.53h-.53ZM38.65,30v-.53h.53v.53h-.53ZM38.65,30.53v-.53h.53v.53h-.53ZM38.65,32.65v-.53h.53v.53h-.53ZM38.65,33.71v-.53h.53v.53h-.53ZM39.17,30v-.53h.53v.53h-.53ZM39.17,30.53v-.53h.53v.53h-.53ZM39.17,32.12v-.53h.53v.53h-.53ZM39.17,33.18v-.53h.53v.53h-.53ZM39.17,35.29v-.53h.53v.53h-.53ZM39.71,30v-.53h.53v.53h-.53ZM39.71,30.53v-.53h.53v.53h-.53ZM39.71,31.59v-.53h.53v.53h-.53ZM39.71,32.65v-.53h.53v.53h-.53ZM39.71,34.24v-.53h.53v.53h-.53ZM39.71,34.77v-.53h.53v.53h-.53ZM39.71,35.29v-.53h.53v.53h-.53ZM39.71,35.83v-.53h.53v.53h-.53ZM40.23,30v-.53h.53v.53h-.53ZM40.23,30.53v-.53h.53v.53h-.53ZM40.23,31.06v-.53h.53v.53h-.53ZM40.23,31.59v-.53h.53v.53h-.53ZM40.23,32.12v-.53h.53v.53h-.53ZM40.23,32.65v-.53h.53v.53h-.53ZM40.23,33.18v-.53h.53v.53h-.53ZM40.23,33.71v-.53h.53v.53h-.53ZM40.23,34.24v-.53h.53v.53h-.53ZM40.23,35.83v-.53h.53v.53h-.53ZM40.23,36.35v-.53h.53v.53h-.53ZM40.76,30v-.53h.53v.53h-.53ZM40.76,30.53v-.53h.53v.53h-.53ZM40.76,31.59v-.53h.53v.53h-.53ZM40.76,32.65v-.53h.53v.53h-.53ZM40.76,34.24v-.53h.53v.53h-.53ZM40.76,34.77v-.53h.53v.53h-.53ZM40.76,35.29v-.53h.53v.53h-.53ZM40.76,35.83v-.53h.53v.53h-.53ZM41.29,30v-.53h.53v.53h-.53ZM41.29,30.53v-.53h.53v.53h-.53ZM41.29,32.12v-.53h.53v.53h-.53ZM41.29,33.18v-.53h.53v.53h-.53ZM41.29,35.29v-.53h.53v.53h-.53ZM41.82,30v-.53h.53v.53h-.53ZM41.82,30.53v-.53h.53v.53h-.53ZM41.82,32.65v-.53h.53v.53h-.53ZM41.82,33.71v-.53h.53v.53h-.53ZM42.35,30.53v-.53h.53v.53h-.53ZM42.35,31.06v-.53h.53v.53h-.53ZM42.35,33.18v-.53h.53v.53h-.53ZM42.35,34.24v-.53h.53v.53h-.53ZM42.88,31.06v-.53h.53v.53h-.53ZM42.88,31.59v-.53h.53v.53h-.53ZM42.88,33.71v-.53h.53v.53h-.53ZM43.41,31.59v-.53h.53v.53h-.53ZM43.41,32.12v-.53h.53v.53h-.53ZM43.94,32.12v-.53h.53v.53h-.53ZM43.94,32.65v-.53h.53v.53h-.53ZM44.47,32.65v-.53h.53v.53h-.53ZM44.47,33.18v-.53h.53v.53h-.53Z"/>
  </g>
  <g>
    <path class="cls-3" d="M54,33.18v.53h-.53v.53h-.53v.53h-.53v.53h-.53v.53h-.53v.53h-3.71v-.53h-.53v-.53h-.53v-.53h-.53v-.53h-.53v-.53h-.53v-1.06h.53v.53h.53v.53h.53v.53h.53v.53h.53v.53h1.59v-.53h-.53v-.53h-.53v-.53h-.53v-.53h-.53v-.53h-.53v-.53h.53v-.53h.53v.53h.53v.53h.53v.53h.53v-1.06h-.53v-1.06h-.53v-.53h.53v-.53h.53v-.53h.53v.53h.53v.53h.53v.53h-.53v1.06h-.53v1.06h.53v-.53h.53v-.53h.53v-.53h.53v.53h.53v.53h-.53v.53h-.53v.53h-.53v.53h-.53v.53h-.53v.53h1.59v-.53h.53v-.53h.53v-.53h.53v-.53h.53v-.53h.53v-.53h.53v1.06h-.53ZM47.64,32.12h-.53v.53h.53v-.53ZM48.18,32.65h-.53v.53h.53v-.53ZM48.7,33.18h-.53v.53h.53v-.53ZM49.24,33.71h-.53v.53h.53v-.53ZM49.76,30.53h-.53v1.06h.53v-1.06ZM50.29,33.71h-.53v.53h.53v-.53ZM50.82,33.18h-.53v.53h.53v-.53ZM51.35,32.65h-.53v.53h.53v-.53ZM51.88,32.12h-.53v.53h.53v-.53Z"/>
    <path class="cls-3" d="M62.87,30.6c-.09,0-.27-.21-.32-.27l-.65.63c.06.04.27.21.27.3,0,.07-.06.12-.13.12-.09,0-.26-.21-.32-.26l-.65.62.64.62c.06-.06.23-.26.32-.26.07,0,.13.06.13.12,0,.08-.22.26-.26.31l.64.62c.06-.06.22-.27.32-.27.07,0,.13.06.13.12,0,.09-.23.27-.27.31.06.06.27.21.27.31,0,.07-.07.12-.13.12-.09,0-.27-.21-.32-.27-.17.17-.27.26-.36.28-.01,0-.03.01-.05.01-.1,0-.22-.1-.41-.29-.15.16-.27.24-.36.28-.02.01-.03.01-.06.01-.09,0-.18-.08-.34-.24l-.05-.04-.64.63.05.04c.16.16.25.24.25.34s-.1.21-.3.4c.2.2.3.31.3.41-.01.1-.1.2-.3.39.06.06.27.21.27.3,0,.07-.06.13-.13.13-.09,0-.26-.22-.32-.27-.06.06-.22.27-.32.27-.06,0-.13-.07-.13-.12,0-.09.23-.27.27-.31l-.64-.63c-.06.06-.23.27-.32.27-.07,0-.13-.06-.13-.12,0-.08.22-.26.27-.31l-.65-.62c-.23.2-.43.41-.64.63.06.06.27.22.27.31,0,.07-.07.12-.13.12-.09,0-.27-.21-.32-.27l-.65.63c.06.06.27.21.27.31,0,.06-.06.12-.13.12-.09,0-.26-.22-.32-.27-.06.06-.22.26-.32.26-.06,0-.13-.06-.13-.12,0-.08.23-.26.27-.3-.19-.19-.28-.3-.3-.4,0-.1.1-.21.3-.4-.19-.19-.3-.29-.3-.4,0-.01.01-.03.01-.04.02-.09.13-.19.28-.34l-.64-.63c-.19.19-.3.29-.41.29-.1,0-.2-.09-.41-.29-.19.2-.3.29-.41.29-.1,0-.2-.1-.4-.29-.06.06-.22.27-.32.27-.07,0-.13-.06-.13-.12,0-.09.22-.26.27-.31-.06-.06-.27-.21-.27-.31,0-.06.06-.12.13-.12.09,0,.27.22.32.27l.64-.62c-.06-.06-.26-.22-.26-.31,0-.07.06-.12.13-.12.08,0,.26.21.31.27l.65-.63c-.22-.21-.44-.41-.65-.62-.06.06-.23.27-.32.27-.07,0-.13-.07-.13-.12,0-.09.22-.27.26-.31l-.64-.63c-.06.06-.22.27-.32.27-.07,0-.13-.06-.13-.12,0-.09.22-.26.27-.31-.06-.06-.27-.21-.27-.3,0-.07.07-.12.13-.12.09,0,.27.21.32.26.1-.1.24-.28.41-.28.11,0,.22.09.41.28.19-.2.29-.28.41-.28.1,0,.22.1.4.28l.65-.63c-.17-.17-.26-.28-.27-.41,0-.11.1-.22.27-.39-.19-.19-.27-.29-.27-.42,0-.1.1-.2.27-.37-.06-.06-.26-.22-.26-.31,0-.07.06-.12.13-.12.08,0,.26.21.31.26.06-.06.23-.26.32-.26.07,0,.13.06.13.12,0,.08-.22.26-.27.31l.65.62c.06-.06.22-.27.32-.27.06,0,.13.06.13.12,0,.09-.23.27-.27.31.22.21.42.43.64.63l.65-.62c-.06-.06-.27-.21-.27-.31,0-.07.06-.12.13-.12.09,0,.26.21.32.27l.64-.63c-.06-.04-.27-.21-.27-.3,0-.07.07-.12.13-.12.09,0,.27.21.32.26.06-.06.23-.26.32-.26.07,0,.13.06.13.12,0,.08-.22.26-.27.3.19.2.28.31.28.43-.01.1-.11.2-.28.37.18.18.27.28.3.39,0,.11-.09.21-.3.4l.65.62c.19-.2.31-.29.43-.29.1.02.2.11.37.29.18-.18.28-.27.42-.28.1,0,.2.09.4.28.06-.06.22-.27.31-.27.07,0,.13.06.13.12,0,.09-.22.27-.26.31.06.06.27.21.27.31,0,.07-.07.12-.13.12ZM54.82,29.95l-.24.22.24.23.23-.23-.23-.22ZM54.83,33.13l-.24.22.24.23.23-.23-.23-.22ZM55.23,32.73l-.23.23.23.22.24-.22-.24-.23ZM55.24,30.35l-.23.23.23.22.24-.22-.24-.23ZM55.63,29.95l-.23.22.23.23.24-.23-.24-.22ZM55.63,30.74l-.23.23.23.22.24-.22-.24-.23ZM55.64,32.33l-.23.23.23.22.24-.22-.24-.23ZM55.64,33.13l-.23.22.23.23.24-.23-.24-.22ZM56.04,30.35l-.24.22.24.22.24-.22-.24-.22ZM56.04,31.14l-.23.22.24.23.23-.22-.24-.23ZM56.05,31.93l-.24.23.24.23.24-.23-.24-.23ZM56.05,32.73l-.24.23.24.22.24-.22-.24-.23ZM60.47,30.6s-.01-.03-.01-.04c0-.1.1-.21.3-.39l-.65-.61c-.18.18-.3.28-.43.28-.1-.01-.2-.11-.37-.28-.19.19-.31.28-.41.28-.02,0-.03,0-.06-.01-.09-.02-.19-.11-.35-.27-.17.17-.28.26-.4.28-.11,0-.22-.1-.41-.29-.19.18-.31.27-.43.27-.11-.01-.22-.1-.39-.27l-.65.63c.1.1.28.23.28.4,0,.11-.09.21-.28.4.13.11.32.39.32.4,0,.08-.08.17-.25.33-.02.01-.03.03-.06.06.2.2.28.3.28.42,0,.1-.1.2-.28.38.19.18.3.3.3.4,0,.01-.01.03-.01.04-.02.09-.11.19-.28.34l.64.63c.18-.19.29-.27.41-.28.11,0,.23.09.41.28.17-.18.27-.27.36-.29.01,0,.03-.01.05-.01.1,0,.22.1.4.29.2-.19.29-.29.41-.29.1,0,.22.1.41.29.1-.1.25-.29.42-.29.1.01.2.11.39.29l.64-.63c-.19-.19-.3-.3-.3-.4,0-.11.1-.21.3-.39-.18-.18-.27-.28-.28-.4,0-.11.09-.21.28-.4-.17-.16-.26-.26-.28-.39,0-.11.09-.21.3-.41-.17-.16-.26-.26-.28-.36ZM56.86,27.95l-.23.22.23.23.24-.23-.24-.22ZM56.86,28.74l-.23.23.23.22.24-.22-.24-.23ZM56.86,34.32l-.23.22.23.23.24-.23-.24-.22ZM56.86,35.11l-.23.23.23.23.24-.23-.24-.23ZM57.26,29.13l-.24.21.24.23.23-.23-.23-.21ZM57.26,34.7l-.24.23.24.23.24-.23-.24-.23ZM57.28,28.36l-.24.21.24.22.24-.22-.24-.21ZM57.28,33.92l-.23.22.23.23.24-.23-.24-.22ZM57.68,28.74l-.24.23.24.22.23-.22-.23-.23ZM57.68,34.32l-.24.22.24.23.23-.23-.23-.22ZM58.07,29.14l-.23.23.24.23.23-.23c-.08-.08-.16-.14-.24-.23ZM58.07,33.93l-.23.22.23.22c.08-.09.16-.16.24-.23-.08-.08-.16-.16-.24-.21ZM58.66,31.75c.07.07.26.21.26.3s-.03.12-.14.12-.23-.19-.29-.26c-.1.12-.22.26-.3.26-.09,0-.13-.04-.13-.13,0-.08.15-.19.25-.29-.08-.06-.25-.2-.25-.29,0-.07.06-.13.13-.13.08,0,.24.2.3.26.1-.08.2-.26.31-.26.06,0,.13.02.13.11,0,.1-.19.26-.26.31ZM58.89,29.18l-.24.21.23.22.24-.22-.23-.21ZM58.88,33.91l-.23.23.23.22.24-.22-.24-.23ZM59.3,28.75l-.24.23.24.22.23-.22-.23-.23ZM59.3,34.31l-.24.23.24.22.23-.22-.23-.23ZM59.7,29.15l-.24.21.23.22.24-.22-.23-.21ZM59.71,28.38l-.24.21.23.22.24-.22-.23-.21ZM59.7,33.91l-.23.23.23.22.24-.22-.24-.23ZM59.7,34.69l-.23.22.23.23.24-.23-.24-.22ZM60.11,27.96l-.23.22.23.23.24-.23-.24-.22ZM60.11,28.75l-.23.23.23.22.24-.22-.24-.23ZM60.11,34.31l-.23.23.23.22.24-.22-.24-.23ZM60.11,35.1l-.23.23.23.23.24-.23-.24-.23ZM60.92,32.72l-.24.22.24.23.23-.23-.23-.22ZM60.92,30.31l-.23.21.23.23.24-.23-.24-.21ZM60.93,31.13l-.24.23.23.22c.08-.08.15-.17.24-.23l-.23-.22ZM60.92,31.91l-.23.21.23.22.24-.22-.24-.21ZM61.33,32.32l-.24.23.24.22.23-.22-.23-.23ZM61.33,33.11l-.24.23.24.23.23-.23-.23-.23ZM61.34,29.93l-.24.23.24.23.23-.23-.23-.23ZM61.34,30.73l-.24.23.24.22.23-.22-.23-.23ZM61.74,30.33l-.23.23.23.22.24-.22-.24-.23ZM61.78,32.73l-.24.22.24.23.23-.23-.23-.22ZM62.15,29.93l-.24.23.24.23.24-.23-.24-.23ZM62.14,33.11l-.23.23.23.23.24-.23-.24-.23Z"/>
  </g>
  <g>
    <path class="cls-3" d="M18,42.18v.53h-.53v.53h-.53v.53h-.53v.53h-.53v.53h-.53v.53h-3.71v-.53h-.53v-.53h-.53v-.53h-.53v-.53h-.53v-.53h-.53v-1.06h.53v.53h.53v.53h.53v.53h.53v.53h.53v.53h1.59v-.53h-.53v-.53h-.53v-.53h-.53v-.53h-.53v-.53h-.53v-.53h.53v-.53h.53v.53h.53v.53h.53v.53h.53v-1.06h-.53v-1.06h-.53v-.53h.53v-.53h.53v-.53h.53v.53h.53v.53h.53v.53h-.53v1.06h-.53v1.06h.53v-.53h.53v-.53h.53v-.53h.53v.53h.53v.53h-.53v.53h-.53v.53h-.53v.53h-.53v.53h-.53v.53h1.59v-.53h.53v-.53h.53v-.53h.53v-.53h.53v-.53h.53v-.53h.53v1.06h-.53ZM11.64,41.12h-.53v.53h.53v-.53ZM12.18,41.65h-.53v.53h.53v-.53ZM12.7,42.18h-.53v.53h.53v-.53ZM13.24,42.71h-.53v.53h.53v-.53ZM13.76,39.53h-.53v1.06h.53v-1.06ZM14.29,42.71h-.53v.53h.53v-.53ZM14.82,42.18h-.53v.53h.53v-.53ZM15.35,41.65h-.53v.53h.53v-.53ZM15.88,41.12h-.53v.53h.53v-.53Z"/>
    <path class="cls-3" d="M18.53,41.12v-.53h.53v.53h-.53ZM18.53,41.65v-.53h.53v.53h-.53ZM19.05,40.59v-.53h.53v.53h-.53ZM19.05,41.12v-.53h.53v.53h-.53ZM19.59,40.06v-.53h.53v.53h-.53ZM19.59,40.59v-.53h.53v.53h-.53ZM19.59,42.71v-.53h.53v.53h-.53ZM20.11,39.53v-.53h.53v.53h-.53ZM20.11,40.06v-.53h.53v.53h-.53ZM20.11,42.18v-.53h.53v.53h-.53ZM20.11,43.24v-.53h.53v.53h-.53ZM20.65,39v-.53h.53v.53h-.53ZM20.65,39.53v-.53h.53v.53h-.53ZM20.65,41.65v-.53h.53v.53h-.53ZM20.65,42.71v-.53h.53v.53h-.53ZM21.17,39v-.53h.53v.53h-.53ZM21.17,39.53v-.53h.53v.53h-.53ZM21.17,41.12v-.53h.53v.53h-.53ZM21.17,42.18v-.53h.53v.53h-.53ZM21.17,44.29v-.53h.53v.53h-.53ZM21.71,39v-.53h.53v.53h-.53ZM21.71,39.53v-.53h.53v.53h-.53ZM21.71,40.59v-.53h.53v.53h-.53ZM21.71,41.65v-.53h.53v.53h-.53ZM21.71,43.24v-.53h.53v.53h-.53ZM21.71,43.77v-.53h.53v.53h-.53ZM21.71,44.29v-.53h.53v.53h-.53ZM21.71,44.83v-.53h.53v.53h-.53ZM22.23,39v-.53h.53v.53h-.53ZM22.23,39.53v-.53h.53v.53h-.53ZM22.23,40.06v-.53h.53v.53h-.53ZM22.23,40.59v-.53h.53v.53h-.53ZM22.23,41.12v-.53h.53v.53h-.53ZM22.23,41.65v-.53h.53v.53h-.53ZM22.23,42.18v-.53h.53v.53h-.53ZM22.23,42.71v-.53h.53v.53h-.53ZM22.23,43.24v-.53h.53v.53h-.53ZM22.23,44.83v-.53h.53v.53h-.53ZM22.23,45.35v-.53h.53v.53h-.53ZM22.76,39v-.53h.53v.53h-.53ZM22.76,39.53v-.53h.53v.53h-.53ZM22.76,40.59v-.53h.53v.53h-.53ZM22.76,41.65v-.53h.53v.53h-.53ZM22.76,43.24v-.53h.53v.53h-.53ZM22.76,43.77v-.53h.53v.53h-.53ZM22.76,44.29v-.53h.53v.53h-.53ZM22.76,44.83v-.53h.53v.53h-.53ZM23.29,39v-.53h.53v.53h-.53ZM23.29,39.53v-.53h.53v.53h-.53ZM23.29,41.12v-.53h.53v.53h-.53ZM23.29,42.18v-.53h.53v.53h-.53ZM23.29,44.29v-.53h.53v.53h-.53ZM23.82,39v-.53h.53v.53h-.53ZM23.82,39.53v-.53h.53v.53h-.53ZM23.82,41.65v-.53h.53v.53h-.53ZM23.82,42.71v-.53h.53v.53h-.53ZM24.35,39.53v-.53h.53v.53h-.53ZM24.35,40.06v-.53h.53v.53h-.53ZM24.35,42.18v-.53h.53v.53h-.53ZM24.35,43.24v-.53h.53v.53h-.53ZM24.88,40.06v-.53h.53v.53h-.53ZM24.88,40.59v-.53h.53v.53h-.53ZM24.88,42.71v-.53h.53v.53h-.53ZM25.41,40.59v-.53h.53v.53h-.53ZM25.41,41.12v-.53h.53v.53h-.53ZM25.94,41.12v-.53h.53v.53h-.53ZM25.94,41.65v-.53h.53v.53h-.53ZM26.47,41.65v-.53h.53v.53h-.53ZM26.47,42.18v-.53h.53v.53h-.53Z"/>
  </g>
  <g>
    <path class="cls-3" d="M35.75,39.64c-.09,0-.27-.21-.32-.27l-.65.63c.06.04.27.21.27.3,0,.07-.06.12-.13.12-.09,0-.26-.21-.32-.26l-.65.62.64.62c.06-.06.23-.26.32-.26.07,0,.13.06.13.12,0,.08-.22.26-.26.31l.64.62c.06-.06.22-.27.32-.27.07,0,.13.06.13.12,0,.09-.23.27-.27.31.06.06.27.21.27.31,0,.07-.07.12-.13.12-.09,0-.27-.21-.32-.27-.17.17-.27.26-.36.28-.01,0-.03.01-.05.01-.1,0-.22-.1-.41-.29-.15.16-.27.24-.36.28-.02.01-.03.01-.06.01-.09,0-.18-.08-.34-.24l-.05-.04-.64.63.05.04c.16.16.25.24.25.34s-.1.21-.3.4c.2.2.3.31.3.41-.01.1-.1.2-.3.39.06.06.27.21.27.3,0,.07-.06.13-.13.13-.09,0-.26-.22-.32-.27-.06.06-.22.27-.32.27-.06,0-.13-.07-.13-.12,0-.09.23-.27.27-.31l-.64-.63c-.06.06-.23.27-.32.27-.07,0-.13-.06-.13-.12,0-.08.22-.26.27-.31l-.65-.62c-.23.2-.43.41-.64.63.06.06.27.22.27.31,0,.07-.07.12-.13.12-.09,0-.27-.21-.32-.27l-.65.63c.06.06.27.21.27.31,0,.06-.06.12-.13.12-.09,0-.26-.22-.32-.27-.06.06-.22.26-.32.26-.06,0-.13-.06-.13-.12,0-.08.23-.26.27-.3-.19-.19-.28-.3-.3-.4,0-.1.1-.21.3-.4-.19-.19-.3-.29-.3-.4,0-.01.01-.03.01-.04.02-.09.13-.19.28-.34l-.64-.63c-.19.19-.3.29-.41.29-.1,0-.2-.09-.41-.29-.19.2-.3.29-.41.29-.1,0-.2-.1-.4-.29-.06.06-.22.27-.32.27-.07,0-.13-.06-.13-.12,0-.09.22-.26.27-.31-.06-.06-.27-.21-.27-.31,0-.06.06-.12.13-.12.09,0,.27.22.32.27l.64-.62c-.06-.06-.26-.22-.26-.31,0-.07.06-.12.13-.12.08,0,.26.21.31.27l.65-.63c-.22-.21-.44-.41-.65-.62-.06.06-.23.27-.32.27-.07,0-.13-.07-.13-.12,0-.09.22-.27.26-.31l-.64-.63c-.06.06-.22.27-.32.27-.07,0-.13-.06-.13-.12,0-.09.22-.26.27-.31-.06-.06-.27-.21-.27-.3,0-.07.07-.12.13-.12.09,0,.27.21.32.26.1-.1.24-.28.41-.28.11,0,.22.09.41.28.19-.2.29-.28.41-.28.1,0,.22.1.4.28l.65-.63c-.17-.17-.26-.28-.27-.41,0-.11.1-.22.27-.39-.19-.19-.27-.29-.27-.42,0-.1.1-.2.27-.37-.06-.06-.26-.22-.26-.31,0-.07.06-.12.13-.12.08,0,.26.21.31.26.06-.06.23-.26.32-.26.07,0,.13.06.13.12,0,.08-.22.26-.27.31l.65.62c.06-.06.22-.27.32-.27.06,0,.13.06.13.12,0,.09-.23.27-.27.31.22.21.42.43.64.63l.65-.62c-.06-.06-.27-.21-.27-.31,0-.07.06-.12.13-.12.09,0,.26.21.32.27l.64-.63c-.06-.04-.27-.21-.27-.3,0-.07.07-.12.13-.12.09,0,.27.21.32.26.06-.06.23-.26.32-.26.07,0,.13.06.13.12,0,.08-.22.26-.27.3.19.2.28.31.28.43-.01.1-.11.2-.28.37.18.18.27.28.3.39,0,.11-.09.21-.3.4l.65.62c.19-.2.31-.29.43-.29.1.02.2.11.37.29.18-.18.28-.27.42-.28.1,0,.2.09.4.28.06-.06.22-.27.31-.27.07,0,.13.06.13.12,0,.09-.22.27-.26.31.06.06.27.21.27.31,0,.07-.07.12-.13.12ZM27.69,39l-.24.22.24.23.23-.23-.23-.22ZM27.7,42.18l-.24.22.24.23.23-.23-.23-.22ZM28.1,41.78l-.23.23.23.22.24-.22-.24-.23ZM28.11,39.4l-.23.23.23.22.24-.22-.24-.23ZM28.5,39l-.23.22.23.23.24-.23-.24-.22ZM28.5,39.79l-.23.23.23.22.24-.22-.24-.23ZM28.51,41.38l-.23.23.23.22.24-.22-.24-.23ZM28.51,42.18l-.23.22.23.23.24-.23-.24-.22ZM28.91,39.4l-.24.22.24.22.24-.22-.24-.22ZM28.91,40.19l-.23.22.24.23.23-.22-.24-.23ZM28.92,40.98l-.24.23.24.23.24-.23-.24-.23ZM28.92,41.78l-.24.23.24.22.24-.22-.24-.23ZM33.35,39.64s-.01-.03-.01-.04c0-.1.1-.21.3-.39l-.65-.61c-.18.18-.3.28-.43.28-.1-.01-.2-.11-.37-.28-.19.19-.31.28-.41.28-.02,0-.03,0-.06-.01-.09-.02-.19-.11-.35-.27-.17.17-.28.26-.4.28-.11,0-.22-.1-.41-.29-.19.18-.31.27-.43.27-.11-.01-.22-.1-.39-.27l-.65.63c.1.1.28.23.28.4,0,.11-.09.21-.28.4.13.11.32.39.32.4,0,.08-.08.17-.25.33-.02.01-.03.03-.06.06.2.2.28.3.28.42,0,.1-.1.2-.28.38.19.18.3.3.3.4,0,.01-.01.03-.01.04-.02.09-.11.19-.28.34l.64.63c.18-.19.29-.27.41-.28.11,0,.23.09.41.28.17-.18.27-.27.36-.29.01,0,.03-.01.05-.01.1,0,.22.1.4.29.2-.19.29-.29.41-.29.1,0,.22.1.41.29.1-.1.25-.29.42-.29.1.01.2.11.39.29l.64-.63c-.19-.19-.3-.3-.3-.4,0-.11.1-.21.3-.39-.18-.18-.27-.28-.28-.4,0-.11.09-.21.28-.4-.17-.16-.26-.26-.28-.39,0-.11.09-.21.3-.41-.17-.16-.26-.26-.28-.36ZM29.73,37l-.23.22.23.23.24-.23-.24-.22ZM29.73,37.79l-.23.23.23.22.24-.22-.24-.23ZM29.73,43.37l-.23.22.23.23.24-.23-.24-.22ZM29.73,44.16l-.23.23.23.23.24-.23-.24-.23ZM30.13,38.18l-.24.21.24.23.23-.23-.23-.21ZM30.13,43.74l-.24.23.24.23.24-.23-.24-.23ZM30.15,37.41l-.24.21.24.22.24-.22-.24-.21ZM30.15,42.97l-.23.22.23.23.24-.23-.24-.22ZM30.55,37.79l-.24.23.24.22.23-.22-.23-.23ZM30.55,43.37l-.24.22.24.23.23-.23-.23-.22ZM30.95,38.19l-.23.23.24.23.23-.23c-.08-.08-.16-.14-.24-.23ZM30.95,42.98l-.23.22.23.22c.08-.09.16-.16.24-.23-.08-.08-.16-.16-.24-.21ZM31.53,40.8c.07.07.26.21.26.3s-.03.12-.14.12-.23-.19-.29-.26c-.1.12-.22.26-.3.26-.09,0-.13-.04-.13-.13,0-.08.15-.19.25-.29-.08-.06-.25-.2-.25-.29,0-.07.06-.13.13-.13.08,0,.24.2.3.26.1-.08.2-.26.31-.26.06,0,.13.02.13.11,0,.1-.19.26-.26.31ZM31.77,38.22l-.24.21.23.22.24-.22-.23-.21ZM31.75,42.96l-.23.23.23.22.24-.22-.24-.23ZM32.18,37.8l-.24.23.24.22.23-.22-.23-.23ZM32.18,43.36l-.24.23.24.22.23-.22-.23-.23ZM32.57,38.2l-.24.21.23.22.24-.22-.23-.21ZM32.58,37.42l-.24.21.23.22.24-.22-.23-.21ZM32.57,42.96l-.23.23.23.22.24-.22-.24-.23ZM32.57,43.73l-.23.22.23.23.24-.23-.24-.22ZM32.98,37.01l-.23.22.23.23.24-.23-.24-.22ZM32.98,37.8l-.23.23.23.22.24-.22-.24-.23ZM32.98,43.36l-.23.23.23.22.24-.22-.24-.23ZM32.98,44.14l-.23.23.23.23.24-.23-.24-.23ZM33.79,41.77l-.24.22.24.23.23-.23-.23-.22ZM33.79,39.36l-.23.21.23.23.24-.23-.24-.21ZM33.8,40.18l-.24.23.23.22c.08-.08.15-.17.24-.23l-.23-.22ZM33.79,40.96l-.23.21.23.22.24-.22-.24-.21ZM34.2,41.37l-.24.23.24.22.23-.22-.23-.23ZM34.2,42.16l-.24.23.24.23.23-.23-.23-.23ZM34.21,38.98l-.24.23.24.23.23-.23-.23-.23ZM34.21,39.78l-.24.23.24.22.23-.22-.23-.23ZM34.61,39.38l-.23.23.23.22.24-.22-.24-.23ZM34.66,41.78l-.24.22.24.23.23-.23-.23-.22ZM35.02,38.98l-.24.23.24.23.24-.23-.24-.23ZM35.01,42.16l-.23.23.23.23.24-.23-.24-.23Z"/>
    <path class="cls-3" d="M44.91,39.6c-.09,0-.27-.21-.32-.27l-.65.63c.06.04.27.21.27.3,0,.07-.06.12-.13.12-.09,0-.26-.21-.32-.26l-.65.62.64.62c.06-.06.23-.26.32-.26.07,0,.13.06.13.12,0,.08-.22.26-.26.31l.64.62c.06-.06.22-.27.32-.27.07,0,.13.06.13.12,0,.09-.23.27-.27.31.06.06.27.21.27.31,0,.07-.07.12-.13.12-.09,0-.27-.21-.32-.27-.17.17-.27.26-.36.28-.01,0-.03.01-.05.01-.1,0-.22-.1-.41-.29-.15.16-.27.24-.36.28-.02.01-.03.01-.06.01-.09,0-.18-.08-.34-.24l-.05-.04-.64.63.05.04c.16.16.25.24.25.34s-.1.21-.3.4c.2.2.3.31.3.41-.01.1-.1.2-.3.39.06.06.27.21.27.3,0,.07-.06.13-.13.13-.09,0-.26-.22-.32-.27-.06.06-.22.27-.32.27-.06,0-.13-.07-.13-.12,0-.09.23-.27.27-.31l-.64-.63c-.06.06-.23.27-.32.27-.07,0-.13-.06-.13-.12,0-.08.22-.26.27-.31l-.65-.62c-.23.2-.43.41-.64.63.06.06.27.22.27.31,0,.07-.07.12-.13.12-.09,0-.27-.21-.32-.27l-.65.63c.06.06.27.21.27.31,0,.06-.06.12-.13.12-.09,0-.26-.22-.32-.27-.06.06-.22.26-.32.26-.06,0-.13-.06-.13-.12,0-.08.23-.26.27-.3-.19-.19-.28-.3-.3-.4,0-.1.1-.21.3-.4-.19-.19-.3-.29-.3-.4,0-.01.01-.03.01-.04.02-.09.13-.19.28-.34l-.64-.63c-.19.19-.3.29-.41.29-.1,0-.2-.09-.41-.29-.19.2-.3.29-.41.29-.1,0-.2-.1-.4-.29-.06.06-.22.27-.32.27-.07,0-.13-.06-.13-.12,0-.09.22-.26.27-.31-.06-.06-.27-.21-.27-.31,0-.06.06-.12.13-.12.09,0,.27.22.32.27l.64-.62c-.06-.06-.26-.22-.26-.31,0-.07.06-.12.13-.12.08,0,.26.21.31.27l.65-.63c-.22-.21-.44-.41-.65-.62-.06.06-.23.27-.32.27-.07,0-.13-.07-.13-.12,0-.09.22-.27.26-.31l-.64-.63c-.06.06-.22.27-.32.27-.07,0-.13-.06-.13-.12,0-.09.22-.26.27-.31-.06-.06-.27-.21-.27-.3,0-.07.07-.12.13-.12.09,0,.27.21.32.26.1-.1.24-.28.41-.28.11,0,.22.09.41.28.19-.2.29-.28.41-.28.1,0,.22.1.4.28l.65-.63c-.17-.17-.26-.28-.27-.41,0-.11.1-.22.27-.39-.19-.19-.27-.29-.27-.42,0-.1.1-.2.27-.37-.06-.06-.26-.22-.26-.31,0-.07.06-.12.13-.12.08,0,.26.21.31.26.06-.06.23-.26.32-.26.07,0,.13.06.13.12,0,.08-.22.26-.27.31l.65.62c.06-.06.22-.27.32-.27.06,0,.13.06.13.12,0,.09-.23.27-.27.31.22.21.42.43.64.63l.65-.62c-.06-.06-.27-.21-.27-.31,0-.07.06-.12.13-.12.09,0,.26.21.32.27l.64-.63c-.06-.04-.27-.21-.27-.3,0-.07.07-.12.13-.12.09,0,.27.21.32.26.06-.06.23-.26.32-.26.07,0,.13.06.13.12,0,.08-.22.26-.27.3.19.2.28.31.28.43-.01.1-.11.2-.28.37.18.18.27.28.3.39,0,.11-.09.21-.3.4l.65.62c.19-.2.31-.29.43-.29.1.02.2.11.37.29.18-.18.28-.27.42-.28.1,0,.2.09.4.28.06-.06.22-.27.31-.27.07,0,.13.06.13.12,0,.09-.22.27-.26.31.06.06.27.21.27.31,0,.07-.07.12-.13.12ZM36.85,38.95l-.24.22.24.23.23-.23-.23-.22ZM36.86,42.13l-.24.22.24.23.23-.23-.23-.22ZM37.26,41.73l-.23.23.23.22.24-.22-.24-.23ZM37.27,39.35l-.23.23.23.22.24-.22-.24-.23ZM37.66,38.95l-.23.22.23.23.24-.23-.24-.22ZM37.66,39.74l-.23.23.23.22.24-.22-.24-.23ZM37.67,41.33l-.23.23.23.22.24-.22-.24-.23ZM37.67,42.13l-.23.22.23.23.24-.23-.24-.22ZM38.07,39.35l-.24.22.24.22.24-.22-.24-.22ZM38.07,40.14l-.23.22.24.23.23-.22-.24-.23ZM38.08,40.93l-.24.23.24.23.24-.23-.24-.23ZM38.08,41.73l-.24.23.24.22.24-.22-.24-.23ZM42.51,39.6s-.01-.03-.01-.04c0-.1.1-.21.3-.39l-.65-.61c-.18.18-.3.28-.43.28-.1-.01-.2-.11-.37-.28-.19.19-.31.28-.41.28-.02,0-.03,0-.06-.01-.09-.02-.19-.11-.35-.27-.17.17-.28.26-.4.28-.11,0-.22-.1-.41-.29-.19.18-.31.27-.43.27-.11-.01-.22-.1-.39-.27l-.65.63c.1.1.28.23.28.4,0,.11-.09.21-.28.4.13.11.32.39.32.4,0,.08-.08.17-.25.33-.02.01-.03.03-.06.06.2.2.28.3.28.42,0,.1-.1.2-.28.38.19.18.3.3.3.4,0,.01-.01.03-.01.04-.02.09-.11.19-.28.34l.64.63c.18-.19.29-.27.41-.28.11,0,.23.09.41.28.17-.18.27-.27.36-.29.01,0,.03-.01.05-.01.1,0,.22.1.4.29.2-.19.29-.29.41-.29.1,0,.22.1.41.29.1-.1.25-.29.42-.29.1.01.2.11.39.29l.64-.63c-.19-.19-.3-.3-.3-.4,0-.11.1-.21.3-.39-.18-.18-.27-.28-.28-.4,0-.11.09-.21.28-.4-.17-.16-.26-.26-.28-.39,0-.11.09-.21.3-.41-.17-.16-.26-.26-.28-.36ZM38.89,36.95l-.23.22.23.23.24-.23-.24-.22ZM38.89,37.74l-.23.23.23.22.24-.22-.24-.23ZM38.89,43.32l-.23.22.23.23.24-.23-.24-.22ZM38.89,44.11l-.23.23.23.23.24-.23-.24-.23ZM39.29,38.13l-.24.21.24.23.23-.23-.23-.21ZM39.29,43.7l-.24.23.24.23.24-.23-.24-.23ZM39.31,37.36l-.24.21.24.22.24-.22-.24-.21ZM39.31,42.92l-.23.22.23.23.24-.23-.24-.22ZM39.71,37.74l-.24.23.24.22.23-.22-.23-.23ZM39.71,43.32l-.24.22.24.23.23-.23-.23-.22ZM40.11,38.14l-.23.23.24.23.23-.23c-.08-.08-.16-.14-.24-.23ZM40.11,42.93l-.23.22.23.22c.08-.09.16-.16.24-.23-.08-.08-.16-.16-.24-.21ZM40.69,40.75c.07.07.26.21.26.3s-.03.12-.14.12-.23-.19-.29-.26c-.1.12-.22.26-.3.26-.09,0-.13-.04-.13-.13,0-.08.15-.19.25-.29-.08-.06-.25-.2-.25-.29,0-.07.06-.13.13-.13.08,0,.24.2.3.26.1-.08.2-.26.31-.26.06,0,.13.02.13.11,0,.1-.19.26-.26.31ZM40.93,38.18l-.24.21.23.22.24-.22-.23-.21ZM40.91,42.91l-.23.23.23.22.24-.22-.24-.23ZM41.34,37.75l-.24.23.24.22.23-.22-.23-.23ZM41.34,43.31l-.24.23.24.22.23-.22-.23-.23ZM41.73,38.15l-.24.21.23.22.24-.22-.23-.21ZM41.74,37.38l-.24.21.23.22.24-.22-.23-.21ZM41.73,42.91l-.23.23.23.22.24-.22-.24-.23ZM41.73,43.69l-.23.22.23.23.24-.23-.24-.22ZM42.14,36.96l-.23.22.23.23.24-.23-.24-.22ZM42.14,37.75l-.23.23.23.22.24-.22-.24-.23ZM42.14,43.31l-.23.23.23.22.24-.22-.24-.23ZM42.14,44.1l-.23.23.23.23.24-.23-.24-.23ZM42.95,41.72l-.24.22.24.23.23-.23-.23-.22ZM42.95,39.31l-.23.21.23.23.24-.23-.24-.21ZM42.96,40.13l-.24.23.23.22c.08-.08.15-.17.24-.23l-.23-.22ZM42.95,40.91l-.23.21.23.22.24-.22-.24-.21ZM43.36,41.32l-.24.23.24.22.23-.22-.23-.23ZM43.36,42.11l-.24.23.24.23.23-.23-.23-.23ZM43.37,38.93l-.24.23.24.23.23-.23-.23-.23ZM43.37,39.73l-.24.23.24.22.23-.22-.23-.23ZM43.77,39.33l-.23.23.23.22.24-.22-.24-.23ZM43.82,41.73l-.24.22.24.23.23-.23-.23-.22ZM44.18,38.93l-.24.23.24.23.24-.23-.24-.23ZM44.17,42.11l-.23.23.23.23.24-.23-.24-.23Z"/>
  </g>
  <g>
    <path class="cls-3" d="M54,42.18v.53h-.53v.53h-.53v.53h-.53v.53h-.53v.53h-.53v.53h-3.71v-.53h-.53v-.53h-.53v-.53h-.53v-.53h-.53v-.53h-.53v-1.06h.53v.53h.53v.53h.53v.53h.53v.53h.53v.53h1.59v-.53h-.53v-.53h-.53v-.53h-.53v-.53h-.53v-.53h-.53v-.53h.53v-.53h.53v.53h.53v.53h.53v.53h.53v-1.06h-.53v-1.06h-.53v-.53h.53v-.53h.53v-.53h.53v.53h.53v.53h.53v.53h-.53v1.06h-.53v1.06h.53v-.53h.53v-.53h.53v-.53h.53v.53h.53v.53h-.53v.53h-.53v.53h-.53v.53h-.53v.53h-.53v.53h1.59v-.53h.53v-.53h.53v-.53h.53v-.53h.53v-.53h.53v-.53h.53v1.06h-.53ZM47.64,41.12h-.53v.53h.53v-.53ZM48.18,41.65h-.53v.53h.53v-.53ZM48.7,42.18h-.53v.53h.53v-.53ZM49.24,42.71h-.53v.53h.53v-.53ZM49.76,39.53h-.53v1.06h.53v-1.06ZM50.29,42.71h-.53v.53h.53v-.53ZM50.82,42.18h-.53v.53h.53v-.53ZM51.35,41.65h-.53v.53h.53v-.53ZM51.88,41.12h-.53v.53h.53v-.53Z"/>
    <path class="cls-3" d="M54.53,41.12v-.53h.53v.53h-.53ZM54.53,41.65v-.53h.53v.53h-.53ZM55.05,40.59v-.53h.53v.53h-.53ZM55.05,41.12v-.53h.53v.53h-.53ZM55.59,40.06v-.53h.53v.53h-.53ZM55.59,40.59v-.53h.53v.53h-.53ZM55.59,42.71v-.53h.53v.53h-.53ZM56.11,39.53v-.53h.53v.53h-.53ZM56.11,40.06v-.53h.53v.53h-.53ZM56.11,42.18v-.53h.53v.53h-.53ZM56.11,43.24v-.53h.53v.53h-.53ZM56.65,39v-.53h.53v.53h-.53ZM56.65,39.53v-.53h.53v.53h-.53ZM56.65,41.65v-.53h.53v.53h-.53ZM56.65,42.71v-.53h.53v.53h-.53ZM57.17,39v-.53h.53v.53h-.53ZM57.17,39.53v-.53h.53v.53h-.53ZM57.17,41.12v-.53h.53v.53h-.53ZM57.17,42.18v-.53h.53v.53h-.53ZM57.17,44.29v-.53h.53v.53h-.53ZM57.71,39v-.53h.53v.53h-.53ZM57.71,39.53v-.53h.53v.53h-.53ZM57.71,40.59v-.53h.53v.53h-.53ZM57.71,41.65v-.53h.53v.53h-.53ZM57.71,43.24v-.53h.53v.53h-.53ZM57.71,43.77v-.53h.53v.53h-.53ZM57.71,44.29v-.53h.53v.53h-.53ZM57.71,44.83v-.53h.53v.53h-.53ZM58.23,39v-.53h.53v.53h-.53ZM58.23,39.53v-.53h.53v.53h-.53ZM58.23,40.06v-.53h.53v.53h-.53ZM58.23,40.59v-.53h.53v.53h-.53ZM58.23,41.12v-.53h.53v.53h-.53ZM58.23,41.65v-.53h.53v.53h-.53ZM58.23,42.18v-.53h.53v.53h-.53ZM58.23,42.71v-.53h.53v.53h-.53ZM58.23,43.24v-.53h.53v.53h-.53ZM58.23,44.83v-.53h.53v.53h-.53ZM58.23,45.35v-.53h.53v.53h-.53ZM58.76,39v-.53h.53v.53h-.53ZM58.76,39.53v-.53h.53v.53h-.53ZM58.76,40.59v-.53h.53v.53h-.53ZM58.76,41.65v-.53h.53v.53h-.53ZM58.76,43.24v-.53h.53v.53h-.53ZM58.76,43.77v-.53h.53v.53h-.53ZM58.76,44.29v-.53h.53v.53h-.53ZM58.76,44.83v-.53h.53v.53h-.53ZM59.29,39v-.53h.53v.53h-.53ZM59.29,39.53v-.53h.53v.53h-.53ZM59.29,41.12v-.53h.53v.53h-.53ZM59.29,42.18v-.53h.53v.53h-.53ZM59.29,44.29v-.53h.53v.53h-.53ZM59.82,39v-.53h.53v.53h-.53ZM59.82,39.53v-.53h.53v.53h-.53ZM59.82,41.65v-.53h.53v.53h-.53ZM59.82,42.71v-.53h.53v.53h-.53ZM60.35,39.53v-.53h.53v.53h-.53ZM60.35,40.06v-.53h.53v.53h-.53ZM60.35,42.18v-.53h.53v.53h-.53ZM60.35,43.24v-.53h.53v.53h-.53ZM60.88,40.06v-.53h.53v.53h-.53ZM60.88,40.59v-.53h.53v.53h-.53ZM60.88,42.71v-.53h.53v.53h-.53ZM61.41,40.59v-.53h.53v.53h-.53ZM61.41,41.12v-.53h.53v.53h-.53ZM61.94,41.12v-.53h.53v.53h-.53ZM61.94,41.65v-.53h.53v.53h-.53ZM62.47,41.65v-.53h.53v.53h-.53ZM62.47,42.18v-.53h.53v.53h-.53Z"/>
  </g>
  <path class="cls-3" d="M62.47,24.18v.53h-.53v.53h-.53v.53h-.53v.53h-.53v.53h-.53v.53h-3.71v-.53h-.53v-.53h-.53v-.53h-.53v-.53h-.53v-.53h-.53v-1.06h.53v.53h.53v.53h.53v.53h.53v.53h.53v.53h1.59v-.53h-.53v-.53h-.53v-.53h-.53v-.53h-.53v-.53h-.53v-.53h.53v-.53h.53v.53h.53v.53h.53v.53h.53v-1.06h-.53v-1.06h-.53v-.53h.53v-.53h.53v-.53h.53v.53h.53v.53h.53v.53h-.53v1.06h-.53v1.06h.53v-.53h.53v-.53h.53v-.53h.53v.53h.53v.53h-.53v.53h-.53v.53h-.53v.53h-.53v.53h-.53v.53h1.59v-.53h.53v-.53h.53v-.53h.53v-.53h.53v-.53h.53v-.53h.53v1.06h-.53ZM56.11,23.12h-.53v.53h.53v-.53ZM56.65,23.65h-.53v.53h.53v-.53ZM57.17,24.18h-.53v.53h.53v-.53ZM57.71,24.71h-.53v.53h.53v-.53ZM58.23,21.53h-.53v1.06h.53v-1.06ZM58.76,24.71h-.53v.53h.53v-.53ZM59.29,24.18h-.53v.53h.53v-.53ZM59.82,23.65h-.53v.53h.53v-.53ZM60.35,23.12h-.53v.53h.53v-.53Z"/>
  <path class="cls-3" d="M53.19,60.62v.68h-.68v.69h.68v.68h-.68v.69h-6.15v-.69h-.68v-.68h.68v-.69h-.68v-.68h-.69v-2.05h.69v-.68h.68v-.69h2.73v-.68h-.68v-.69h.68v-.68h.69v.68h.68v.69h-.68v.68h2.73v.69h.68v.68h.69v2.05h-.69ZM48.42,60.62h-.69v-.69h-.68v-.68h.68v-.69h.69v-.68h-2.05v.68h-.68v2.05h.68v.68h2.05v-.68ZM52.51,61.99h-6.15v.68h6.15v-.68ZM49.1,58.57h-.68v.69h-.69v.68h.69v.69h.68v-2.05ZM49.78,55.83h-.69v.69h.69v-.69ZM49.78,57.2h-.69v.69h.69v-.69ZM49.78,60.63h-.68v.68h.68v-.68ZM51.15,59.26h-.69v-.69h-.68v2.05h.68v-.69h.69v-.68ZM53.19,58.57h-.68v-.68h-2.05v.68h.69v.69h.68v.68h-.68v.69h-.69v.68h2.05v-.68h.68v-2.05Z"/>
  <path class="cls-3" d="M26.19,60.62v.68h-.68v.69h.68v.68h-.68v.69h-6.15v-.69h-.68v-.68h.68v-.69h-.68v-.68h-.69v-2.05h.69v-.68h.68v-.69h2.73v-.68h-.68v-.69h.68v-.68h.69v.68h.68v.69h-.68v.68h2.73v.69h.68v.68h.69v2.05h-.69ZM21.42,60.62h-.69v-.69h-.68v-.68h.68v-.69h.69v-.68h-2.05v.68h-.68v2.05h.68v.68h2.05v-.68ZM25.51,61.99h-6.15v.68h6.15v-.68ZM22.1,58.57h-.68v.69h-.69v.68h.69v.69h.68v-2.05ZM22.78,55.83h-.69v.69h.69v-.69ZM22.78,57.2h-.69v.69h.69v-.69ZM22.78,60.63h-.68v.68h.68v-.68ZM24.15,59.26h-.69v-.69h-.68v2.05h.68v-.69h.69v-.68ZM26.19,58.57h-.68v-.68h-2.05v.68h.69v.69h.68v.68h-.68v.69h-.69v.68h2.05v-.68h.68v-2.05Z"/>
</svg>